G04 EAGLE Gerber RS-274X export*
G75*
%MOMM*%
%FSLAX34Y34*%
%LPD*%
%INTop Copper*%
%IPPOS*%
%AMOC8*
5,1,8,0,0,1.08239X$1,22.5*%
G01*
%ADD10C,1.524000*%
%ADD11P,1.429621X8X22.500000*%
%ADD12C,1.320800*%
%ADD13C,1.320800*%
%ADD14P,1.429621X8X202.500000*%
%ADD15P,1.649562X8X22.500000*%
%ADD16P,1.407107X8X22.500000*%
%ADD17C,0.508000*%


D10*
X250856Y346830D02*
X266096Y346830D01*
X266096Y321430D02*
X250856Y321430D01*
X250856Y296030D02*
X266096Y296030D01*
X266096Y270630D02*
X250856Y270630D01*
X250856Y245230D02*
X266096Y245230D01*
X266096Y219830D02*
X250856Y219830D01*
X632380Y364356D02*
X647620Y364356D01*
X647620Y338956D02*
X632380Y338956D01*
X632380Y313556D02*
X647620Y313556D01*
X647620Y288156D02*
X632380Y288156D01*
X632380Y262756D02*
X647620Y262756D01*
X647620Y237356D02*
X632380Y237356D01*
D11*
X867300Y675000D03*
X892700Y675000D03*
X867300Y720000D03*
X892700Y720000D03*
X867300Y765000D03*
X892700Y765000D03*
X867300Y810000D03*
X892700Y810000D03*
D12*
X383540Y660150D03*
X383540Y611890D03*
D13*
X67564Y742950D02*
X67564Y756158D01*
X42164Y756158D02*
X42164Y742950D01*
X42164Y679958D02*
X42164Y666750D01*
X67564Y666750D02*
X67564Y679958D01*
D10*
X284600Y832380D02*
X284600Y847620D01*
X310000Y847620D02*
X310000Y832380D01*
X335400Y832380D02*
X335400Y847620D01*
X284600Y802620D02*
X284600Y787380D01*
X310000Y787380D02*
X310000Y802620D01*
X335400Y802620D02*
X335400Y787380D01*
X284600Y757620D02*
X284600Y742380D01*
X310000Y742380D02*
X310000Y757620D01*
X335400Y757620D02*
X335400Y742380D01*
X284600Y712620D02*
X284600Y697380D01*
X310000Y697380D02*
X310000Y712620D01*
X335400Y712620D02*
X335400Y697380D01*
X647698Y87120D02*
X647698Y71880D01*
X622298Y71880D02*
X622298Y87120D01*
X62990Y783340D02*
X47750Y783340D01*
X47750Y808740D02*
X62990Y808740D01*
D13*
X369070Y173394D02*
X369070Y160186D01*
X394470Y160186D02*
X394470Y173394D01*
X521470Y173394D02*
X521470Y160186D01*
X546870Y160186D02*
X546870Y173394D01*
X419870Y173394D02*
X419870Y160186D01*
X445270Y160186D02*
X445270Y173394D01*
X496070Y173394D02*
X496070Y160186D01*
X470670Y160186D02*
X470670Y173394D01*
X546870Y236386D02*
X546870Y249594D01*
X521470Y249594D02*
X521470Y236386D01*
X496070Y236386D02*
X496070Y249594D01*
X470670Y249594D02*
X470670Y236386D01*
X445270Y236386D02*
X445270Y249594D01*
X419870Y249594D02*
X419870Y236386D01*
X394470Y236386D02*
X394470Y249594D01*
X369070Y249594D02*
X369070Y236386D01*
D14*
X805940Y226310D03*
D12*
X826260Y226310D03*
D14*
X759970Y279150D03*
D12*
X780290Y279150D03*
D15*
X552704Y340868D03*
X552704Y366268D03*
X578104Y340868D03*
X578104Y366268D03*
X325120Y311912D03*
X325120Y337312D03*
X350520Y311912D03*
X350520Y337312D03*
X375920Y311912D03*
X375920Y337312D03*
D10*
X718312Y88392D02*
X718312Y73152D01*
X692912Y73152D02*
X692912Y88392D01*
D16*
X322326Y672084D03*
D17*
X339852Y672084D01*
X364236Y696468D01*
D16*
X364236Y696468D03*
X116586Y816102D03*
D17*
X172974Y816102D01*
D16*
X172974Y816102D03*
X601980Y253746D03*
D17*
X601980Y174498D01*
D16*
X601980Y174498D03*
X244602Y143256D03*
X283464Y185166D03*
D17*
X283464Y182118D02*
X244602Y143256D01*
X283464Y182118D02*
X283464Y185166D01*
D16*
X288036Y546439D03*
D17*
X241469Y546439D01*
X241469Y559393D01*
X198120Y602742D01*
D16*
X198120Y602742D03*
X291846Y609600D03*
X172212Y627126D03*
D17*
X268224Y633222D02*
X291846Y609600D01*
X268224Y633222D02*
X178308Y633222D01*
X172212Y627126D01*
D16*
X449580Y308610D03*
D17*
X426720Y331470D01*
D16*
X426720Y352044D03*
D17*
X426720Y331470D01*
D16*
X487680Y320802D03*
D17*
X483870Y320802D01*
X442722Y361950D01*
D16*
X442722Y367284D03*
D17*
X442722Y361950D01*
D16*
X640842Y569214D03*
X640842Y626364D03*
D17*
X640842Y569214D01*
D16*
X615696Y569976D03*
X615696Y626364D03*
D17*
X615696Y569976D01*
D16*
X588264Y569214D03*
X588264Y626364D03*
D17*
X588264Y569214D01*
D16*
X562356Y569214D03*
D17*
X562356Y626364D01*
D16*
X562356Y626364D03*
X307086Y630174D03*
D17*
X281940Y655320D01*
X172974Y655320D01*
X172212Y654558D01*
D16*
X172212Y654558D03*
X322326Y650748D03*
D17*
X310896Y662178D01*
X195834Y662178D01*
X175260Y682752D01*
X175260Y683514D01*
D16*
X175260Y683514D03*
M02*
