G04 EAGLE Gerber RS-274X export*
G75*
%MOMM*%
%FSLAX34Y34*%
%LPD*%
%IN*%
%IPPOS*%
%AMOC8*
5,1,8,0,0,1.08239X$1,22.5*%
G01*
%ADD10C,0.254000*%


D10*
X0Y100000D02*
X381Y91284D01*
X1519Y82635D01*
X3407Y74118D01*
X6031Y65798D01*
X9369Y57738D01*
X13397Y50000D01*
X18085Y42642D01*
X23396Y35721D01*
X29289Y29289D01*
X35721Y23396D01*
X42642Y18085D01*
X50000Y13397D01*
X57738Y9369D01*
X65798Y6031D01*
X74118Y3407D01*
X82635Y1519D01*
X91284Y381D01*
X100000Y0D01*
X820000Y0D01*
X828716Y381D01*
X837365Y1519D01*
X845882Y3407D01*
X854202Y6031D01*
X862262Y9369D01*
X870000Y13397D01*
X877358Y18085D01*
X884279Y23396D01*
X890711Y29289D01*
X896604Y35721D01*
X901915Y42642D01*
X906603Y50000D01*
X910631Y57738D01*
X913969Y65798D01*
X916593Y74118D01*
X918481Y82635D01*
X919619Y91284D01*
X920000Y100000D01*
X920000Y300000D01*
X850000Y300000D01*
X850000Y620000D01*
X920000Y620000D01*
X920000Y820000D01*
X919619Y828716D01*
X918481Y837365D01*
X916593Y845882D01*
X913969Y854202D01*
X910631Y862262D01*
X906603Y870000D01*
X901915Y877358D01*
X896604Y884279D01*
X890711Y890711D01*
X884279Y896604D01*
X877358Y901915D01*
X870000Y906603D01*
X862262Y910631D01*
X854202Y913969D01*
X845882Y916593D01*
X837365Y918481D01*
X828716Y919619D01*
X820000Y920000D01*
X100000Y920000D01*
X91284Y919619D01*
X82635Y918481D01*
X74118Y916593D01*
X65798Y913969D01*
X57738Y910631D01*
X50000Y906603D01*
X42642Y901915D01*
X35721Y896604D01*
X29289Y890711D01*
X23396Y884279D01*
X18085Y877358D01*
X13397Y870000D01*
X9369Y862262D01*
X6031Y854202D01*
X3407Y845882D01*
X1519Y837365D01*
X381Y828716D01*
X0Y820000D01*
X0Y620000D01*
X70000Y620000D01*
X70000Y300000D01*
X0Y300000D01*
X0Y100000D01*
X70000Y859563D02*
X69924Y858694D01*
X69772Y857834D01*
X69546Y856990D01*
X69248Y856170D01*
X68879Y855378D01*
X68442Y854622D01*
X67941Y853907D01*
X67380Y853238D01*
X66762Y852620D01*
X66093Y852059D01*
X65378Y851558D01*
X64622Y851121D01*
X63830Y850752D01*
X63010Y850454D01*
X62166Y850228D01*
X61307Y850076D01*
X60437Y850000D01*
X59563Y850000D01*
X58694Y850076D01*
X57834Y850228D01*
X56990Y850454D01*
X56170Y850752D01*
X55378Y851121D01*
X54622Y851558D01*
X53907Y852059D01*
X53238Y852620D01*
X52620Y853238D01*
X52059Y853907D01*
X51558Y854622D01*
X51121Y855378D01*
X50752Y856170D01*
X50454Y856990D01*
X50228Y857834D01*
X50076Y858694D01*
X50000Y859563D01*
X50000Y860437D01*
X50076Y861307D01*
X50228Y862166D01*
X50454Y863010D01*
X50752Y863830D01*
X51121Y864622D01*
X51558Y865378D01*
X52059Y866093D01*
X52620Y866762D01*
X53238Y867380D01*
X53907Y867941D01*
X54622Y868442D01*
X55378Y868879D01*
X56170Y869248D01*
X56990Y869546D01*
X57834Y869772D01*
X58694Y869924D01*
X59563Y870000D01*
X60437Y870000D01*
X61307Y869924D01*
X62166Y869772D01*
X63010Y869546D01*
X63830Y869248D01*
X64622Y868879D01*
X65378Y868442D01*
X66093Y867941D01*
X66762Y867380D01*
X67380Y866762D01*
X67941Y866093D01*
X68442Y865378D01*
X68879Y864622D01*
X69248Y863830D01*
X69546Y863010D01*
X69772Y862166D01*
X69924Y861307D01*
X70000Y860437D01*
X70000Y859563D01*
X870000Y859563D02*
X869924Y858694D01*
X869772Y857834D01*
X869546Y856990D01*
X869248Y856170D01*
X868879Y855378D01*
X868442Y854622D01*
X867941Y853907D01*
X867380Y853238D01*
X866762Y852620D01*
X866093Y852059D01*
X865378Y851558D01*
X864622Y851121D01*
X863830Y850752D01*
X863010Y850454D01*
X862166Y850228D01*
X861307Y850076D01*
X860437Y850000D01*
X859563Y850000D01*
X858694Y850076D01*
X857834Y850228D01*
X856990Y850454D01*
X856170Y850752D01*
X855378Y851121D01*
X854622Y851558D01*
X853907Y852059D01*
X853238Y852620D01*
X852620Y853238D01*
X852059Y853907D01*
X851558Y854622D01*
X851121Y855378D01*
X850752Y856170D01*
X850454Y856990D01*
X850228Y857834D01*
X850076Y858694D01*
X850000Y859563D01*
X850000Y860437D01*
X850076Y861307D01*
X850228Y862166D01*
X850454Y863010D01*
X850752Y863830D01*
X851121Y864622D01*
X851558Y865378D01*
X852059Y866093D01*
X852620Y866762D01*
X853238Y867380D01*
X853907Y867941D01*
X854622Y868442D01*
X855378Y868879D01*
X856170Y869248D01*
X856990Y869546D01*
X857834Y869772D01*
X858694Y869924D01*
X859563Y870000D01*
X860437Y870000D01*
X861307Y869924D01*
X862166Y869772D01*
X863010Y869546D01*
X863830Y869248D01*
X864622Y868879D01*
X865378Y868442D01*
X866093Y867941D01*
X866762Y867380D01*
X867380Y866762D01*
X867941Y866093D01*
X868442Y865378D01*
X868879Y864622D01*
X869248Y863830D01*
X869546Y863010D01*
X869772Y862166D01*
X869924Y861307D01*
X870000Y860437D01*
X870000Y859563D01*
X70000Y59563D02*
X69924Y58694D01*
X69772Y57834D01*
X69546Y56990D01*
X69248Y56170D01*
X68879Y55378D01*
X68442Y54622D01*
X67941Y53907D01*
X67380Y53238D01*
X66762Y52620D01*
X66093Y52059D01*
X65378Y51558D01*
X64622Y51121D01*
X63830Y50752D01*
X63010Y50454D01*
X62166Y50228D01*
X61307Y50076D01*
X60437Y50000D01*
X59563Y50000D01*
X58694Y50076D01*
X57834Y50228D01*
X56990Y50454D01*
X56170Y50752D01*
X55378Y51121D01*
X54622Y51558D01*
X53907Y52059D01*
X53238Y52620D01*
X52620Y53238D01*
X52059Y53907D01*
X51558Y54622D01*
X51121Y55378D01*
X50752Y56170D01*
X50454Y56990D01*
X50228Y57834D01*
X50076Y58694D01*
X50000Y59563D01*
X50000Y60437D01*
X50076Y61307D01*
X50228Y62166D01*
X50454Y63010D01*
X50752Y63830D01*
X51121Y64622D01*
X51558Y65378D01*
X52059Y66093D01*
X52620Y66762D01*
X53238Y67380D01*
X53907Y67941D01*
X54622Y68442D01*
X55378Y68879D01*
X56170Y69248D01*
X56990Y69546D01*
X57834Y69772D01*
X58694Y69924D01*
X59563Y70000D01*
X60437Y70000D01*
X61307Y69924D01*
X62166Y69772D01*
X63010Y69546D01*
X63830Y69248D01*
X64622Y68879D01*
X65378Y68442D01*
X66093Y67941D01*
X66762Y67380D01*
X67380Y66762D01*
X67941Y66093D01*
X68442Y65378D01*
X68879Y64622D01*
X69248Y63830D01*
X69546Y63010D01*
X69772Y62166D01*
X69924Y61307D01*
X70000Y60437D01*
X70000Y59563D01*
X870000Y59563D02*
X869924Y58694D01*
X869772Y57834D01*
X869546Y56990D01*
X869248Y56170D01*
X868879Y55378D01*
X868442Y54622D01*
X867941Y53907D01*
X867380Y53238D01*
X866762Y52620D01*
X866093Y52059D01*
X865378Y51558D01*
X864622Y51121D01*
X863830Y50752D01*
X863010Y50454D01*
X862166Y50228D01*
X861307Y50076D01*
X860437Y50000D01*
X859563Y50000D01*
X858694Y50076D01*
X857834Y50228D01*
X856990Y50454D01*
X856170Y50752D01*
X855378Y51121D01*
X854622Y51558D01*
X853907Y52059D01*
X853238Y52620D01*
X852620Y53238D01*
X852059Y53907D01*
X851558Y54622D01*
X851121Y55378D01*
X850752Y56170D01*
X850454Y56990D01*
X850228Y57834D01*
X850076Y58694D01*
X850000Y59563D01*
X850000Y60437D01*
X850076Y61307D01*
X850228Y62166D01*
X850454Y63010D01*
X850752Y63830D01*
X851121Y64622D01*
X851558Y65378D01*
X852059Y66093D01*
X852620Y66762D01*
X853238Y67380D01*
X853907Y67941D01*
X854622Y68442D01*
X855378Y68879D01*
X856170Y69248D01*
X856990Y69546D01*
X857834Y69772D01*
X858694Y69924D01*
X859563Y70000D01*
X860437Y70000D01*
X861307Y69924D01*
X862166Y69772D01*
X863010Y69546D01*
X863830Y69248D01*
X864622Y68879D01*
X865378Y68442D01*
X866093Y67941D01*
X866762Y67380D01*
X867380Y66762D01*
X867941Y66093D01*
X868442Y65378D01*
X868879Y64622D01*
X869248Y63830D01*
X869546Y63010D01*
X869772Y62166D01*
X869924Y61307D01*
X870000Y60437D01*
X870000Y59563D01*
X123420Y549571D02*
X123353Y548716D01*
X123218Y547868D01*
X123018Y547034D01*
X122753Y546218D01*
X122425Y545425D01*
X122035Y544660D01*
X121587Y543929D01*
X121082Y543234D01*
X120525Y542582D01*
X119918Y541975D01*
X119266Y541418D01*
X118572Y540913D01*
X117840Y540465D01*
X117075Y540075D01*
X116283Y539747D01*
X115466Y539482D01*
X114632Y539282D01*
X113785Y539147D01*
X112929Y539080D01*
X112071Y539080D01*
X111216Y539147D01*
X110368Y539282D01*
X109534Y539482D01*
X108718Y539747D01*
X107925Y540075D01*
X107160Y540465D01*
X106429Y540913D01*
X105734Y541418D01*
X105082Y541975D01*
X104475Y542582D01*
X103918Y543234D01*
X103413Y543929D01*
X102965Y544660D01*
X102575Y545425D01*
X102247Y546218D01*
X101982Y547034D01*
X101782Y547868D01*
X101647Y548716D01*
X101580Y549571D01*
X101580Y550429D01*
X101647Y551285D01*
X101782Y552132D01*
X101982Y552966D01*
X102247Y553783D01*
X102575Y554575D01*
X102965Y555340D01*
X103413Y556072D01*
X103918Y556766D01*
X104475Y557418D01*
X105082Y558025D01*
X105734Y558582D01*
X106429Y559087D01*
X107160Y559535D01*
X107925Y559925D01*
X108718Y560253D01*
X109534Y560518D01*
X110368Y560718D01*
X111216Y560853D01*
X112071Y560920D01*
X112929Y560920D01*
X113785Y560853D01*
X114632Y560718D01*
X115466Y560518D01*
X116283Y560253D01*
X117075Y559925D01*
X117840Y559535D01*
X118572Y559087D01*
X119266Y558582D01*
X119918Y558025D01*
X120525Y557418D01*
X121082Y556766D01*
X121587Y556072D01*
X122035Y555340D01*
X122425Y554575D01*
X122753Y553783D01*
X123018Y552966D01*
X123218Y552132D01*
X123353Y551285D01*
X123420Y550429D01*
X123420Y549571D01*
X123420Y369571D02*
X123353Y368716D01*
X123218Y367868D01*
X123018Y367034D01*
X122753Y366218D01*
X122425Y365425D01*
X122035Y364660D01*
X121587Y363929D01*
X121082Y363234D01*
X120525Y362582D01*
X119918Y361975D01*
X119266Y361418D01*
X118572Y360913D01*
X117840Y360465D01*
X117075Y360075D01*
X116283Y359747D01*
X115466Y359482D01*
X114632Y359282D01*
X113785Y359147D01*
X112929Y359080D01*
X112071Y359080D01*
X111216Y359147D01*
X110368Y359282D01*
X109534Y359482D01*
X108718Y359747D01*
X107925Y360075D01*
X107160Y360465D01*
X106429Y360913D01*
X105734Y361418D01*
X105082Y361975D01*
X104475Y362582D01*
X103918Y363234D01*
X103413Y363929D01*
X102965Y364660D01*
X102575Y365425D01*
X102247Y366218D01*
X101982Y367034D01*
X101782Y367868D01*
X101647Y368716D01*
X101580Y369571D01*
X101580Y370429D01*
X101647Y371285D01*
X101782Y372132D01*
X101982Y372966D01*
X102247Y373783D01*
X102575Y374575D01*
X102965Y375340D01*
X103413Y376072D01*
X103918Y376766D01*
X104475Y377418D01*
X105082Y378025D01*
X105734Y378582D01*
X106429Y379087D01*
X107160Y379535D01*
X107925Y379925D01*
X108718Y380253D01*
X109534Y380518D01*
X110368Y380718D01*
X111216Y380853D01*
X112071Y380920D01*
X112929Y380920D01*
X113785Y380853D01*
X114632Y380718D01*
X115466Y380518D01*
X116283Y380253D01*
X117075Y379925D01*
X117840Y379535D01*
X118572Y379087D01*
X119266Y378582D01*
X119918Y378025D01*
X120525Y377418D01*
X121082Y376766D01*
X121587Y376072D01*
X122035Y375340D01*
X122425Y374575D01*
X122753Y373783D01*
X123018Y372966D01*
X123218Y372132D01*
X123353Y371285D01*
X123420Y370429D01*
X123420Y369571D01*
X818420Y549571D02*
X818353Y548716D01*
X818218Y547868D01*
X818018Y547034D01*
X817753Y546218D01*
X817425Y545425D01*
X817035Y544660D01*
X816587Y543929D01*
X816082Y543234D01*
X815525Y542582D01*
X814918Y541975D01*
X814266Y541418D01*
X813572Y540913D01*
X812840Y540465D01*
X812075Y540075D01*
X811283Y539747D01*
X810466Y539482D01*
X809632Y539282D01*
X808785Y539147D01*
X807929Y539080D01*
X807071Y539080D01*
X806216Y539147D01*
X805368Y539282D01*
X804534Y539482D01*
X803718Y539747D01*
X802925Y540075D01*
X802160Y540465D01*
X801429Y540913D01*
X800734Y541418D01*
X800082Y541975D01*
X799475Y542582D01*
X798918Y543234D01*
X798413Y543929D01*
X797965Y544660D01*
X797575Y545425D01*
X797247Y546218D01*
X796982Y547034D01*
X796782Y547868D01*
X796647Y548716D01*
X796580Y549571D01*
X796580Y550429D01*
X796647Y551285D01*
X796782Y552132D01*
X796982Y552966D01*
X797247Y553783D01*
X797575Y554575D01*
X797965Y555340D01*
X798413Y556072D01*
X798918Y556766D01*
X799475Y557418D01*
X800082Y558025D01*
X800734Y558582D01*
X801429Y559087D01*
X802160Y559535D01*
X802925Y559925D01*
X803718Y560253D01*
X804534Y560518D01*
X805368Y560718D01*
X806216Y560853D01*
X807071Y560920D01*
X807929Y560920D01*
X808785Y560853D01*
X809632Y560718D01*
X810466Y560518D01*
X811283Y560253D01*
X812075Y559925D01*
X812840Y559535D01*
X813572Y559087D01*
X814266Y558582D01*
X814918Y558025D01*
X815525Y557418D01*
X816082Y556766D01*
X816587Y556072D01*
X817035Y555340D01*
X817425Y554575D01*
X817753Y553783D01*
X818018Y552966D01*
X818218Y552132D01*
X818353Y551285D01*
X818420Y550429D01*
X818420Y549571D01*
X818420Y369571D02*
X818353Y368716D01*
X818218Y367868D01*
X818018Y367034D01*
X817753Y366218D01*
X817425Y365425D01*
X817035Y364660D01*
X816587Y363929D01*
X816082Y363234D01*
X815525Y362582D01*
X814918Y361975D01*
X814266Y361418D01*
X813572Y360913D01*
X812840Y360465D01*
X812075Y360075D01*
X811283Y359747D01*
X810466Y359482D01*
X809632Y359282D01*
X808785Y359147D01*
X807929Y359080D01*
X807071Y359080D01*
X806216Y359147D01*
X805368Y359282D01*
X804534Y359482D01*
X803718Y359747D01*
X802925Y360075D01*
X802160Y360465D01*
X801429Y360913D01*
X800734Y361418D01*
X800082Y361975D01*
X799475Y362582D01*
X798918Y363234D01*
X798413Y363929D01*
X797965Y364660D01*
X797575Y365425D01*
X797247Y366218D01*
X796982Y367034D01*
X796782Y367868D01*
X796647Y368716D01*
X796580Y369571D01*
X796580Y370429D01*
X796647Y371285D01*
X796782Y372132D01*
X796982Y372966D01*
X797247Y373783D01*
X797575Y374575D01*
X797965Y375340D01*
X798413Y376072D01*
X798918Y376766D01*
X799475Y377418D01*
X800082Y378025D01*
X800734Y378582D01*
X801429Y379087D01*
X802160Y379535D01*
X802925Y379925D01*
X803718Y380253D01*
X804534Y380518D01*
X805368Y380718D01*
X806216Y380853D01*
X807071Y380920D01*
X807929Y380920D01*
X808785Y380853D01*
X809632Y380718D01*
X810466Y380518D01*
X811283Y380253D01*
X812075Y379925D01*
X812840Y379535D01*
X813572Y379087D01*
X814266Y378582D01*
X814918Y378025D01*
X815525Y377418D01*
X816082Y376766D01*
X816587Y376072D01*
X817035Y375340D01*
X817425Y374575D01*
X817753Y373783D01*
X818018Y372966D01*
X818218Y372132D01*
X818353Y371285D01*
X818420Y370429D01*
X818420Y369571D01*
X538740Y889551D02*
X538670Y888656D01*
X538529Y887768D01*
X538319Y886895D01*
X538042Y886041D01*
X537698Y885211D01*
X537290Y884411D01*
X536821Y883645D01*
X536293Y882918D01*
X535710Y882235D01*
X535075Y881600D01*
X534392Y881017D01*
X533665Y880489D01*
X532899Y880020D01*
X532099Y879612D01*
X531269Y879268D01*
X530415Y878991D01*
X529542Y878781D01*
X528655Y878640D01*
X527759Y878570D01*
X526861Y878570D01*
X525966Y878640D01*
X525078Y878781D01*
X524205Y878991D01*
X523351Y879268D01*
X522521Y879612D01*
X521721Y880020D01*
X520955Y880489D01*
X520228Y881017D01*
X519545Y881600D01*
X518910Y882235D01*
X518327Y882918D01*
X517799Y883645D01*
X517330Y884411D01*
X516922Y885211D01*
X516578Y886041D01*
X516301Y886895D01*
X516091Y887768D01*
X515950Y888656D01*
X515880Y889551D01*
X515880Y890449D01*
X515950Y891345D01*
X516091Y892232D01*
X516301Y893105D01*
X516578Y893959D01*
X516922Y894789D01*
X517330Y895589D01*
X517799Y896355D01*
X518327Y897082D01*
X518910Y897765D01*
X519545Y898400D01*
X520228Y898983D01*
X520955Y899511D01*
X521721Y899980D01*
X522521Y900388D01*
X523351Y900732D01*
X524205Y901009D01*
X525078Y901219D01*
X525966Y901360D01*
X526861Y901430D01*
X527759Y901430D01*
X528655Y901360D01*
X529542Y901219D01*
X530415Y901009D01*
X531269Y900732D01*
X532099Y900388D01*
X532899Y899980D01*
X533665Y899511D01*
X534392Y898983D01*
X535075Y898400D01*
X535710Y897765D01*
X536293Y897082D01*
X536821Y896355D01*
X537290Y895589D01*
X537698Y894789D01*
X538042Y893959D01*
X538319Y893105D01*
X538529Y892232D01*
X538670Y891345D01*
X538740Y890449D01*
X538740Y889551D01*
X404120Y889551D02*
X404050Y888656D01*
X403909Y887768D01*
X403699Y886895D01*
X403422Y886041D01*
X403078Y885211D01*
X402670Y884411D01*
X402201Y883645D01*
X401673Y882918D01*
X401090Y882235D01*
X400455Y881600D01*
X399772Y881017D01*
X399045Y880489D01*
X398279Y880020D01*
X397479Y879612D01*
X396649Y879268D01*
X395795Y878991D01*
X394922Y878781D01*
X394035Y878640D01*
X393139Y878570D01*
X392241Y878570D01*
X391346Y878640D01*
X390458Y878781D01*
X389585Y878991D01*
X388731Y879268D01*
X387901Y879612D01*
X387101Y880020D01*
X386335Y880489D01*
X385608Y881017D01*
X384925Y881600D01*
X384290Y882235D01*
X383707Y882918D01*
X383179Y883645D01*
X382710Y884411D01*
X382302Y885211D01*
X381958Y886041D01*
X381681Y886895D01*
X381471Y887768D01*
X381330Y888656D01*
X381260Y889551D01*
X381260Y890449D01*
X381330Y891345D01*
X381471Y892232D01*
X381681Y893105D01*
X381958Y893959D01*
X382302Y894789D01*
X382710Y895589D01*
X383179Y896355D01*
X383707Y897082D01*
X384290Y897765D01*
X384925Y898400D01*
X385608Y898983D01*
X386335Y899511D01*
X387101Y899980D01*
X387901Y900388D01*
X388731Y900732D01*
X389585Y901009D01*
X390458Y901219D01*
X391346Y901360D01*
X392241Y901430D01*
X393139Y901430D01*
X394035Y901360D01*
X394922Y901219D01*
X395795Y901009D01*
X396649Y900732D01*
X397479Y900388D01*
X398279Y899980D01*
X399045Y899511D01*
X399772Y898983D01*
X400455Y898400D01*
X401090Y897765D01*
X401673Y897082D01*
X402201Y896355D01*
X402670Y895589D01*
X403078Y894789D01*
X403422Y893959D01*
X403699Y893105D01*
X403909Y892232D01*
X404050Y891345D01*
X404120Y890449D01*
X404120Y889551D01*
M02*
