G04 EAGLE Gerber RS-274X export*
G75*
%MOMM*%
%FSLAX34Y34*%
%LPD*%
%INSilkscreen Bottom*%
%IPPOS*%
%AMOC8*
5,1,8,0,0,1.08239X$1,22.5*%
G01*
%ADD10C,0.101600*%
%ADD11C,0.203200*%
%ADD12C,0.254000*%
%ADD13C,0.152400*%
%ADD14R,0.762000X0.863600*%
%ADD15C,0.177800*%


D10*
X436054Y651258D02*
X438651Y651258D01*
X438750Y651260D01*
X438850Y651266D01*
X438949Y651275D01*
X439047Y651288D01*
X439145Y651305D01*
X439243Y651326D01*
X439339Y651351D01*
X439434Y651379D01*
X439528Y651411D01*
X439621Y651446D01*
X439713Y651485D01*
X439803Y651528D01*
X439891Y651573D01*
X439978Y651623D01*
X440062Y651675D01*
X440145Y651731D01*
X440225Y651789D01*
X440303Y651851D01*
X440378Y651916D01*
X440451Y651984D01*
X440521Y652054D01*
X440589Y652127D01*
X440654Y652202D01*
X440716Y652280D01*
X440774Y652360D01*
X440830Y652443D01*
X440882Y652527D01*
X440932Y652614D01*
X440977Y652702D01*
X441020Y652792D01*
X441059Y652884D01*
X441094Y652977D01*
X441126Y653071D01*
X441154Y653166D01*
X441179Y653262D01*
X441200Y653360D01*
X441217Y653458D01*
X441230Y653556D01*
X441239Y653655D01*
X441245Y653755D01*
X441247Y653854D01*
X441247Y660346D01*
X441245Y660445D01*
X441239Y660545D01*
X441230Y660644D01*
X441217Y660742D01*
X441200Y660840D01*
X441179Y660938D01*
X441154Y661034D01*
X441126Y661129D01*
X441094Y661223D01*
X441059Y661316D01*
X441020Y661408D01*
X440977Y661498D01*
X440932Y661586D01*
X440882Y661673D01*
X440830Y661757D01*
X440774Y661840D01*
X440716Y661920D01*
X440654Y661998D01*
X440589Y662073D01*
X440521Y662146D01*
X440451Y662216D01*
X440378Y662284D01*
X440303Y662349D01*
X440225Y662411D01*
X440145Y662469D01*
X440062Y662525D01*
X439978Y662577D01*
X439891Y662627D01*
X439803Y662672D01*
X439713Y662715D01*
X439621Y662754D01*
X439528Y662789D01*
X439434Y662821D01*
X439339Y662849D01*
X439243Y662874D01*
X439145Y662895D01*
X439047Y662912D01*
X438949Y662925D01*
X438850Y662934D01*
X438750Y662940D01*
X438651Y662942D01*
X436054Y662942D01*
X431689Y660346D02*
X428444Y662942D01*
X428444Y651258D01*
X431689Y651258D02*
X425198Y651258D01*
X415542Y594731D02*
X415542Y592134D01*
X415544Y592035D01*
X415550Y591935D01*
X415559Y591836D01*
X415572Y591738D01*
X415589Y591640D01*
X415610Y591542D01*
X415635Y591446D01*
X415663Y591351D01*
X415695Y591257D01*
X415730Y591164D01*
X415769Y591072D01*
X415812Y590982D01*
X415857Y590894D01*
X415907Y590807D01*
X415959Y590723D01*
X416015Y590640D01*
X416073Y590560D01*
X416135Y590482D01*
X416200Y590407D01*
X416268Y590334D01*
X416338Y590264D01*
X416411Y590196D01*
X416486Y590131D01*
X416564Y590069D01*
X416644Y590011D01*
X416727Y589955D01*
X416811Y589903D01*
X416898Y589853D01*
X416986Y589808D01*
X417076Y589765D01*
X417168Y589726D01*
X417261Y589691D01*
X417355Y589659D01*
X417450Y589631D01*
X417546Y589606D01*
X417644Y589585D01*
X417742Y589568D01*
X417840Y589555D01*
X417939Y589546D01*
X418039Y589540D01*
X418138Y589538D01*
X424630Y589538D01*
X424729Y589540D01*
X424829Y589546D01*
X424928Y589555D01*
X425026Y589568D01*
X425124Y589585D01*
X425222Y589606D01*
X425318Y589631D01*
X425413Y589659D01*
X425507Y589691D01*
X425600Y589726D01*
X425692Y589765D01*
X425782Y589808D01*
X425870Y589853D01*
X425957Y589903D01*
X426041Y589955D01*
X426124Y590011D01*
X426204Y590069D01*
X426282Y590131D01*
X426357Y590196D01*
X426430Y590264D01*
X426500Y590334D01*
X426568Y590407D01*
X426633Y590482D01*
X426695Y590560D01*
X426753Y590640D01*
X426809Y590723D01*
X426861Y590807D01*
X426911Y590894D01*
X426956Y590982D01*
X426999Y591072D01*
X427038Y591164D01*
X427073Y591256D01*
X427105Y591351D01*
X427133Y591446D01*
X427158Y591542D01*
X427179Y591640D01*
X427196Y591738D01*
X427209Y591836D01*
X427218Y591935D01*
X427224Y592035D01*
X427226Y592134D01*
X427226Y594731D01*
X427226Y602666D02*
X427224Y602773D01*
X427218Y602879D01*
X427208Y602985D01*
X427195Y603091D01*
X427177Y603197D01*
X427156Y603301D01*
X427131Y603405D01*
X427102Y603508D01*
X427070Y603609D01*
X427033Y603709D01*
X426993Y603808D01*
X426950Y603906D01*
X426903Y604002D01*
X426852Y604096D01*
X426798Y604188D01*
X426741Y604278D01*
X426681Y604366D01*
X426617Y604451D01*
X426550Y604534D01*
X426480Y604615D01*
X426408Y604693D01*
X426332Y604769D01*
X426254Y604841D01*
X426173Y604911D01*
X426090Y604978D01*
X426005Y605042D01*
X425917Y605102D01*
X425827Y605159D01*
X425735Y605213D01*
X425641Y605264D01*
X425545Y605311D01*
X425447Y605354D01*
X425348Y605394D01*
X425248Y605431D01*
X425147Y605463D01*
X425044Y605492D01*
X424940Y605517D01*
X424836Y605538D01*
X424730Y605556D01*
X424624Y605569D01*
X424518Y605579D01*
X424412Y605585D01*
X424305Y605587D01*
X427226Y602666D02*
X427224Y602545D01*
X427218Y602424D01*
X427208Y602304D01*
X427195Y602183D01*
X427177Y602064D01*
X427156Y601944D01*
X427131Y601826D01*
X427102Y601709D01*
X427069Y601592D01*
X427033Y601477D01*
X426992Y601363D01*
X426949Y601250D01*
X426901Y601138D01*
X426850Y601029D01*
X426795Y600921D01*
X426737Y600814D01*
X426676Y600710D01*
X426611Y600608D01*
X426543Y600508D01*
X426472Y600410D01*
X426398Y600314D01*
X426321Y600221D01*
X426240Y600131D01*
X426157Y600043D01*
X426071Y599958D01*
X425982Y599875D01*
X425891Y599796D01*
X425797Y599719D01*
X425701Y599646D01*
X425603Y599576D01*
X425502Y599509D01*
X425399Y599445D01*
X425294Y599385D01*
X425187Y599328D01*
X425079Y599274D01*
X424969Y599224D01*
X424857Y599178D01*
X424744Y599135D01*
X424629Y599096D01*
X422033Y604614D02*
X422110Y604693D01*
X422191Y604769D01*
X422274Y604842D01*
X422359Y604912D01*
X422447Y604979D01*
X422537Y605043D01*
X422629Y605103D01*
X422724Y605160D01*
X422820Y605214D01*
X422918Y605265D01*
X423018Y605312D01*
X423120Y605356D01*
X423223Y605396D01*
X423327Y605432D01*
X423433Y605464D01*
X423539Y605493D01*
X423647Y605518D01*
X423755Y605540D01*
X423865Y605557D01*
X423974Y605571D01*
X424084Y605580D01*
X424195Y605586D01*
X424305Y605588D01*
X422033Y604614D02*
X415542Y599096D01*
X415542Y605587D01*
D11*
X525054Y462828D02*
X525054Y457172D01*
X525054Y462828D02*
X462828Y525054D01*
X457172Y525054D01*
X394946Y462828D01*
X394946Y457172D01*
X457172Y394946D01*
X462828Y394946D01*
X525054Y457172D01*
D12*
X513742Y460000D02*
X513744Y460106D01*
X513750Y460211D01*
X513760Y460317D01*
X513774Y460421D01*
X513791Y460526D01*
X513813Y460629D01*
X513838Y460732D01*
X513868Y460833D01*
X513901Y460934D01*
X513937Y461033D01*
X513978Y461130D01*
X514022Y461227D01*
X514070Y461321D01*
X514121Y461414D01*
X514175Y461504D01*
X514233Y461593D01*
X514294Y461679D01*
X514359Y461763D01*
X514426Y461844D01*
X514497Y461923D01*
X514570Y461999D01*
X514646Y462072D01*
X514725Y462143D01*
X514806Y462210D01*
X514890Y462275D01*
X514976Y462336D01*
X515065Y462394D01*
X515156Y462448D01*
X515248Y462499D01*
X515342Y462547D01*
X515439Y462591D01*
X515536Y462632D01*
X515635Y462668D01*
X515736Y462701D01*
X515837Y462731D01*
X515940Y462756D01*
X516043Y462778D01*
X516148Y462795D01*
X516252Y462809D01*
X516358Y462819D01*
X516463Y462825D01*
X516569Y462827D01*
X516675Y462825D01*
X516780Y462819D01*
X516886Y462809D01*
X516990Y462795D01*
X517095Y462778D01*
X517198Y462756D01*
X517301Y462731D01*
X517402Y462701D01*
X517503Y462668D01*
X517602Y462632D01*
X517699Y462591D01*
X517796Y462547D01*
X517890Y462499D01*
X517983Y462448D01*
X518073Y462394D01*
X518162Y462336D01*
X518248Y462275D01*
X518332Y462210D01*
X518413Y462143D01*
X518492Y462072D01*
X518568Y461999D01*
X518641Y461923D01*
X518712Y461844D01*
X518779Y461763D01*
X518844Y461679D01*
X518905Y461593D01*
X518963Y461504D01*
X519017Y461413D01*
X519068Y461321D01*
X519116Y461227D01*
X519160Y461130D01*
X519201Y461033D01*
X519237Y460934D01*
X519270Y460833D01*
X519300Y460732D01*
X519325Y460629D01*
X519347Y460526D01*
X519364Y460421D01*
X519378Y460317D01*
X519388Y460211D01*
X519394Y460106D01*
X519396Y460000D01*
X519394Y459894D01*
X519388Y459789D01*
X519378Y459683D01*
X519364Y459579D01*
X519347Y459474D01*
X519325Y459371D01*
X519300Y459268D01*
X519270Y459167D01*
X519237Y459066D01*
X519201Y458967D01*
X519160Y458870D01*
X519116Y458773D01*
X519068Y458679D01*
X519017Y458586D01*
X518963Y458496D01*
X518905Y458407D01*
X518844Y458321D01*
X518779Y458237D01*
X518712Y458156D01*
X518641Y458077D01*
X518568Y458001D01*
X518492Y457928D01*
X518413Y457857D01*
X518332Y457790D01*
X518248Y457725D01*
X518162Y457664D01*
X518073Y457606D01*
X517982Y457552D01*
X517890Y457501D01*
X517796Y457453D01*
X517699Y457409D01*
X517602Y457368D01*
X517503Y457332D01*
X517402Y457299D01*
X517301Y457269D01*
X517198Y457244D01*
X517095Y457222D01*
X516990Y457205D01*
X516886Y457191D01*
X516780Y457181D01*
X516675Y457175D01*
X516569Y457173D01*
X516463Y457175D01*
X516358Y457181D01*
X516252Y457191D01*
X516148Y457205D01*
X516043Y457222D01*
X515940Y457244D01*
X515837Y457269D01*
X515736Y457299D01*
X515635Y457332D01*
X515536Y457368D01*
X515439Y457409D01*
X515342Y457453D01*
X515248Y457501D01*
X515155Y457552D01*
X515065Y457606D01*
X514976Y457664D01*
X514890Y457725D01*
X514806Y457790D01*
X514725Y457857D01*
X514646Y457928D01*
X514570Y458001D01*
X514497Y458077D01*
X514426Y458156D01*
X514359Y458237D01*
X514294Y458321D01*
X514233Y458407D01*
X514175Y458496D01*
X514121Y458587D01*
X514070Y458679D01*
X514022Y458773D01*
X513978Y458870D01*
X513937Y458967D01*
X513901Y459066D01*
X513868Y459167D01*
X513838Y459268D01*
X513813Y459371D01*
X513791Y459474D01*
X513774Y459579D01*
X513760Y459683D01*
X513750Y459789D01*
X513744Y459894D01*
X513742Y460000D01*
D13*
X535953Y482111D02*
X547448Y493606D01*
X534676Y483389D02*
X537230Y480834D01*
X548725Y492329D02*
X546171Y494883D01*
X527777Y490287D02*
X525223Y492842D01*
X527778Y490288D02*
X527863Y490206D01*
X527950Y490126D01*
X528041Y490050D01*
X528133Y489976D01*
X528228Y489906D01*
X528325Y489839D01*
X528425Y489775D01*
X528526Y489714D01*
X528629Y489656D01*
X528734Y489602D01*
X528841Y489552D01*
X528950Y489505D01*
X529060Y489462D01*
X529171Y489422D01*
X529283Y489386D01*
X529397Y489353D01*
X529512Y489324D01*
X529627Y489299D01*
X529744Y489278D01*
X529861Y489261D01*
X529978Y489247D01*
X530096Y489238D01*
X530214Y489232D01*
X530332Y489230D01*
X530450Y489232D01*
X530568Y489238D01*
X530686Y489247D01*
X530803Y489261D01*
X530920Y489278D01*
X531037Y489299D01*
X531152Y489324D01*
X531267Y489353D01*
X531381Y489386D01*
X531493Y489422D01*
X531604Y489462D01*
X531714Y489505D01*
X531823Y489552D01*
X531930Y489603D01*
X532035Y489657D01*
X532138Y489714D01*
X532239Y489775D01*
X532339Y489839D01*
X532436Y489906D01*
X532531Y489976D01*
X532623Y490050D01*
X532714Y490126D01*
X532801Y490206D01*
X532886Y490288D01*
X532886Y490287D02*
X539272Y496673D01*
X539272Y496674D02*
X539354Y496759D01*
X539434Y496846D01*
X539510Y496937D01*
X539584Y497029D01*
X539654Y497124D01*
X539721Y497221D01*
X539785Y497321D01*
X539846Y497422D01*
X539903Y497525D01*
X539957Y497630D01*
X540008Y497737D01*
X540055Y497846D01*
X540098Y497956D01*
X540138Y498067D01*
X540174Y498179D01*
X540207Y498293D01*
X540236Y498408D01*
X540261Y498523D01*
X540282Y498640D01*
X540299Y498757D01*
X540313Y498874D01*
X540322Y498992D01*
X540328Y499110D01*
X540330Y499228D01*
X540328Y499346D01*
X540322Y499464D01*
X540313Y499582D01*
X540299Y499699D01*
X540282Y499816D01*
X540261Y499933D01*
X540236Y500048D01*
X540207Y500163D01*
X540174Y500276D01*
X540138Y500389D01*
X540098Y500500D01*
X540055Y500610D01*
X540008Y500719D01*
X539958Y500826D01*
X539904Y500931D01*
X539846Y501034D01*
X539785Y501135D01*
X539721Y501235D01*
X539654Y501332D01*
X539584Y501427D01*
X539510Y501519D01*
X539434Y501610D01*
X539354Y501697D01*
X539272Y501782D01*
X536718Y504336D01*
X530033Y505912D02*
X529395Y511659D01*
X517900Y500164D01*
X521093Y496971D02*
X514707Y503357D01*
D11*
X781810Y193040D02*
X841754Y193036D01*
X781810Y193040D02*
X781810Y127500D01*
X841754Y127504D01*
D14*
X776984Y160270D03*
D15*
X855089Y124837D02*
X871091Y124837D01*
X855089Y123059D02*
X855089Y126615D01*
X871091Y126615D02*
X871091Y123059D01*
X855089Y136409D02*
X855089Y139965D01*
X855089Y136409D02*
X855091Y136293D01*
X855097Y136176D01*
X855106Y136060D01*
X855119Y135945D01*
X855136Y135830D01*
X855157Y135715D01*
X855182Y135602D01*
X855210Y135489D01*
X855242Y135377D01*
X855278Y135266D01*
X855317Y135156D01*
X855360Y135048D01*
X855406Y134941D01*
X855456Y134836D01*
X855509Y134733D01*
X855565Y134631D01*
X855625Y134531D01*
X855688Y134433D01*
X855755Y134338D01*
X855824Y134244D01*
X855896Y134153D01*
X855971Y134064D01*
X856050Y133978D01*
X856131Y133895D01*
X856214Y133814D01*
X856300Y133735D01*
X856389Y133660D01*
X856480Y133588D01*
X856574Y133519D01*
X856669Y133452D01*
X856767Y133389D01*
X856867Y133329D01*
X856969Y133273D01*
X857072Y133220D01*
X857177Y133170D01*
X857284Y133124D01*
X857392Y133081D01*
X857502Y133042D01*
X857613Y133006D01*
X857725Y132974D01*
X857838Y132946D01*
X857951Y132921D01*
X858066Y132900D01*
X858181Y132883D01*
X858296Y132870D01*
X858412Y132861D01*
X858529Y132855D01*
X858645Y132853D01*
X867535Y132853D01*
X867651Y132855D01*
X867768Y132861D01*
X867884Y132870D01*
X867999Y132883D01*
X868114Y132900D01*
X868229Y132921D01*
X868342Y132946D01*
X868455Y132974D01*
X868567Y133006D01*
X868678Y133042D01*
X868788Y133081D01*
X868896Y133124D01*
X869003Y133170D01*
X869108Y133220D01*
X869211Y133273D01*
X869313Y133329D01*
X869413Y133389D01*
X869511Y133452D01*
X869606Y133519D01*
X869700Y133588D01*
X869791Y133660D01*
X869880Y133735D01*
X869966Y133814D01*
X870049Y133895D01*
X870130Y133978D01*
X870209Y134064D01*
X870284Y134153D01*
X870356Y134244D01*
X870425Y134338D01*
X870492Y134433D01*
X870555Y134531D01*
X870615Y134631D01*
X870671Y134733D01*
X870724Y134836D01*
X870774Y134941D01*
X870820Y135048D01*
X870863Y135156D01*
X870902Y135266D01*
X870938Y135377D01*
X870970Y135489D01*
X870998Y135602D01*
X871023Y135715D01*
X871044Y135830D01*
X871061Y135945D01*
X871074Y136060D01*
X871083Y136176D01*
X871089Y136293D01*
X871091Y136409D01*
X871091Y139965D01*
X855089Y145923D02*
X855089Y150368D01*
X855091Y150500D01*
X855097Y150631D01*
X855107Y150763D01*
X855120Y150894D01*
X855138Y151024D01*
X855159Y151154D01*
X855184Y151284D01*
X855213Y151412D01*
X855246Y151540D01*
X855283Y151666D01*
X855323Y151792D01*
X855367Y151916D01*
X855415Y152039D01*
X855466Y152160D01*
X855521Y152280D01*
X855579Y152398D01*
X855641Y152514D01*
X855707Y152628D01*
X855775Y152741D01*
X855847Y152851D01*
X855922Y152959D01*
X856001Y153065D01*
X856082Y153169D01*
X856167Y153270D01*
X856254Y153368D01*
X856345Y153464D01*
X856438Y153557D01*
X856534Y153648D01*
X856632Y153735D01*
X856733Y153820D01*
X856837Y153901D01*
X856943Y153980D01*
X857051Y154055D01*
X857161Y154127D01*
X857274Y154195D01*
X857388Y154261D01*
X857504Y154323D01*
X857622Y154381D01*
X857742Y154436D01*
X857863Y154487D01*
X857986Y154535D01*
X858110Y154579D01*
X858236Y154619D01*
X858362Y154656D01*
X858490Y154689D01*
X858618Y154718D01*
X858748Y154743D01*
X858878Y154764D01*
X859008Y154782D01*
X859139Y154795D01*
X859271Y154805D01*
X859402Y154811D01*
X859534Y154813D01*
X859666Y154811D01*
X859797Y154805D01*
X859929Y154795D01*
X860060Y154782D01*
X860190Y154764D01*
X860320Y154743D01*
X860450Y154718D01*
X860578Y154689D01*
X860706Y154656D01*
X860832Y154619D01*
X860958Y154579D01*
X861082Y154535D01*
X861205Y154487D01*
X861326Y154436D01*
X861446Y154381D01*
X861564Y154323D01*
X861680Y154261D01*
X861794Y154195D01*
X861907Y154127D01*
X862017Y154055D01*
X862125Y153980D01*
X862231Y153901D01*
X862335Y153820D01*
X862436Y153735D01*
X862534Y153648D01*
X862630Y153557D01*
X862723Y153464D01*
X862814Y153368D01*
X862901Y153270D01*
X862986Y153169D01*
X863067Y153065D01*
X863146Y152959D01*
X863221Y152851D01*
X863293Y152741D01*
X863361Y152628D01*
X863427Y152514D01*
X863489Y152398D01*
X863547Y152280D01*
X863602Y152160D01*
X863653Y152039D01*
X863701Y151916D01*
X863745Y151792D01*
X863785Y151666D01*
X863822Y151540D01*
X863855Y151412D01*
X863884Y151284D01*
X863909Y151154D01*
X863930Y151024D01*
X863948Y150894D01*
X863961Y150763D01*
X863971Y150631D01*
X863977Y150500D01*
X863979Y150368D01*
X871091Y151257D02*
X871091Y145923D01*
X871091Y151257D02*
X871089Y151375D01*
X871083Y151492D01*
X871074Y151609D01*
X871060Y151726D01*
X871043Y151842D01*
X871021Y151958D01*
X870996Y152073D01*
X870967Y152187D01*
X870935Y152300D01*
X870898Y152412D01*
X870858Y152522D01*
X870815Y152631D01*
X870767Y152739D01*
X870717Y152845D01*
X870662Y152949D01*
X870605Y153052D01*
X870544Y153152D01*
X870479Y153251D01*
X870412Y153347D01*
X870341Y153441D01*
X870267Y153533D01*
X870191Y153622D01*
X870111Y153708D01*
X870029Y153792D01*
X869943Y153873D01*
X869856Y153951D01*
X869765Y154027D01*
X869672Y154099D01*
X869577Y154168D01*
X869480Y154234D01*
X869380Y154297D01*
X869279Y154356D01*
X869176Y154412D01*
X869070Y154464D01*
X868963Y154513D01*
X868855Y154559D01*
X868745Y154601D01*
X868634Y154639D01*
X868521Y154673D01*
X868408Y154704D01*
X868293Y154731D01*
X868178Y154754D01*
X868062Y154774D01*
X867946Y154789D01*
X867829Y154801D01*
X867711Y154809D01*
X867594Y154813D01*
X867476Y154813D01*
X867359Y154809D01*
X867241Y154801D01*
X867124Y154789D01*
X867008Y154774D01*
X866892Y154754D01*
X866777Y154731D01*
X866662Y154704D01*
X866549Y154673D01*
X866436Y154639D01*
X866325Y154601D01*
X866215Y154559D01*
X866107Y154513D01*
X866000Y154464D01*
X865894Y154412D01*
X865791Y154356D01*
X865690Y154297D01*
X865590Y154234D01*
X865493Y154168D01*
X865398Y154099D01*
X865305Y154027D01*
X865214Y153951D01*
X865127Y153873D01*
X865041Y153792D01*
X864959Y153708D01*
X864879Y153622D01*
X864803Y153533D01*
X864729Y153441D01*
X864658Y153347D01*
X864591Y153251D01*
X864526Y153152D01*
X864465Y153052D01*
X864408Y152949D01*
X864353Y152845D01*
X864303Y152739D01*
X864255Y152631D01*
X864212Y152522D01*
X864172Y152412D01*
X864135Y152300D01*
X864103Y152187D01*
X864074Y152073D01*
X864049Y151958D01*
X864027Y151842D01*
X864010Y151726D01*
X863996Y151609D01*
X863987Y151492D01*
X863981Y151375D01*
X863979Y151257D01*
X863979Y147701D01*
D10*
X147070Y710877D02*
X135386Y710877D01*
X147070Y710877D02*
X147070Y714122D01*
X147068Y714235D01*
X147062Y714348D01*
X147052Y714461D01*
X147038Y714574D01*
X147021Y714686D01*
X146999Y714797D01*
X146974Y714907D01*
X146944Y715017D01*
X146911Y715125D01*
X146874Y715232D01*
X146834Y715338D01*
X146789Y715442D01*
X146741Y715545D01*
X146690Y715646D01*
X146635Y715745D01*
X146577Y715842D01*
X146515Y715937D01*
X146450Y716030D01*
X146382Y716120D01*
X146311Y716208D01*
X146236Y716294D01*
X146159Y716377D01*
X146079Y716457D01*
X145996Y716534D01*
X145910Y716609D01*
X145822Y716680D01*
X145732Y716748D01*
X145639Y716813D01*
X145544Y716875D01*
X145447Y716933D01*
X145348Y716988D01*
X145247Y717039D01*
X145144Y717087D01*
X145040Y717132D01*
X144934Y717172D01*
X144827Y717209D01*
X144719Y717242D01*
X144609Y717272D01*
X144499Y717297D01*
X144388Y717319D01*
X144276Y717336D01*
X144163Y717350D01*
X144050Y717360D01*
X143937Y717366D01*
X143824Y717368D01*
X143711Y717366D01*
X143598Y717360D01*
X143485Y717350D01*
X143372Y717336D01*
X143260Y717319D01*
X143149Y717297D01*
X143039Y717272D01*
X142929Y717242D01*
X142821Y717209D01*
X142714Y717172D01*
X142608Y717132D01*
X142504Y717087D01*
X142401Y717039D01*
X142300Y716988D01*
X142201Y716933D01*
X142104Y716875D01*
X142009Y716813D01*
X141916Y716748D01*
X141826Y716680D01*
X141738Y716609D01*
X141652Y716534D01*
X141569Y716457D01*
X141489Y716377D01*
X141412Y716294D01*
X141337Y716208D01*
X141266Y716120D01*
X141198Y716030D01*
X141133Y715937D01*
X141071Y715842D01*
X141013Y715745D01*
X140958Y715646D01*
X140907Y715545D01*
X140859Y715442D01*
X140814Y715338D01*
X140774Y715232D01*
X140737Y715125D01*
X140704Y715017D01*
X140674Y714907D01*
X140649Y714797D01*
X140627Y714686D01*
X140610Y714574D01*
X140596Y714461D01*
X140586Y714348D01*
X140580Y714235D01*
X140578Y714122D01*
X140579Y714122D02*
X140579Y710877D01*
X140579Y714771D02*
X135386Y717368D01*
X135386Y725747D02*
X135388Y725846D01*
X135394Y725946D01*
X135403Y726045D01*
X135416Y726143D01*
X135433Y726241D01*
X135454Y726339D01*
X135479Y726435D01*
X135507Y726530D01*
X135539Y726624D01*
X135574Y726717D01*
X135613Y726809D01*
X135656Y726899D01*
X135701Y726987D01*
X135751Y727074D01*
X135803Y727158D01*
X135859Y727241D01*
X135917Y727321D01*
X135979Y727399D01*
X136044Y727474D01*
X136112Y727547D01*
X136182Y727617D01*
X136255Y727685D01*
X136330Y727750D01*
X136408Y727812D01*
X136488Y727870D01*
X136571Y727926D01*
X136655Y727978D01*
X136742Y728028D01*
X136830Y728073D01*
X136920Y728116D01*
X137012Y728155D01*
X137105Y728190D01*
X137199Y728222D01*
X137294Y728250D01*
X137390Y728275D01*
X137488Y728296D01*
X137586Y728313D01*
X137684Y728326D01*
X137783Y728335D01*
X137883Y728341D01*
X137982Y728343D01*
X135386Y725747D02*
X135388Y725603D01*
X135394Y725458D01*
X135403Y725314D01*
X135416Y725171D01*
X135433Y725027D01*
X135454Y724884D01*
X135479Y724742D01*
X135507Y724601D01*
X135539Y724460D01*
X135575Y724320D01*
X135614Y724181D01*
X135657Y724043D01*
X135704Y723907D01*
X135754Y723771D01*
X135808Y723637D01*
X135865Y723505D01*
X135926Y723374D01*
X135990Y723245D01*
X136058Y723117D01*
X136128Y722991D01*
X136203Y722867D01*
X136280Y722746D01*
X136361Y722626D01*
X136444Y722508D01*
X136531Y722393D01*
X136621Y722280D01*
X136714Y722169D01*
X136809Y722061D01*
X136908Y721955D01*
X137009Y721852D01*
X144474Y722177D02*
X144573Y722179D01*
X144673Y722185D01*
X144772Y722194D01*
X144870Y722207D01*
X144968Y722224D01*
X145066Y722245D01*
X145162Y722270D01*
X145257Y722298D01*
X145351Y722330D01*
X145444Y722365D01*
X145536Y722404D01*
X145626Y722447D01*
X145714Y722492D01*
X145801Y722542D01*
X145885Y722594D01*
X145968Y722650D01*
X146048Y722708D01*
X146126Y722770D01*
X146201Y722835D01*
X146274Y722903D01*
X146344Y722973D01*
X146412Y723046D01*
X146477Y723121D01*
X146539Y723199D01*
X146597Y723279D01*
X146653Y723362D01*
X146705Y723446D01*
X146755Y723533D01*
X146800Y723621D01*
X146843Y723711D01*
X146882Y723803D01*
X146917Y723896D01*
X146949Y723990D01*
X146977Y724085D01*
X147002Y724182D01*
X147023Y724279D01*
X147040Y724377D01*
X147053Y724475D01*
X147062Y724574D01*
X147068Y724674D01*
X147070Y724773D01*
X147068Y724909D01*
X147062Y725045D01*
X147053Y725181D01*
X147040Y725317D01*
X147022Y725452D01*
X147002Y725586D01*
X146977Y725720D01*
X146949Y725854D01*
X146916Y725986D01*
X146881Y726117D01*
X146841Y726248D01*
X146798Y726377D01*
X146752Y726505D01*
X146701Y726631D01*
X146648Y726757D01*
X146590Y726880D01*
X146530Y727002D01*
X146466Y727122D01*
X146398Y727241D01*
X146328Y727357D01*
X146254Y727471D01*
X146177Y727584D01*
X146096Y727694D01*
X142202Y723474D02*
X142255Y723388D01*
X142312Y723304D01*
X142371Y723222D01*
X142434Y723142D01*
X142500Y723065D01*
X142568Y722990D01*
X142640Y722918D01*
X142714Y722849D01*
X142791Y722783D01*
X142870Y722720D01*
X142952Y722660D01*
X143036Y722603D01*
X143122Y722549D01*
X143210Y722499D01*
X143300Y722452D01*
X143391Y722408D01*
X143485Y722369D01*
X143579Y722332D01*
X143675Y722300D01*
X143773Y722271D01*
X143871Y722246D01*
X143970Y722225D01*
X144070Y722207D01*
X144170Y722194D01*
X144271Y722184D01*
X144373Y722178D01*
X144474Y722176D01*
X140254Y727045D02*
X140201Y727131D01*
X140144Y727215D01*
X140085Y727297D01*
X140022Y727377D01*
X139956Y727454D01*
X139888Y727529D01*
X139816Y727601D01*
X139742Y727670D01*
X139665Y727736D01*
X139586Y727799D01*
X139504Y727859D01*
X139420Y727916D01*
X139334Y727970D01*
X139246Y728020D01*
X139156Y728067D01*
X139065Y728111D01*
X138971Y728150D01*
X138877Y728187D01*
X138781Y728219D01*
X138683Y728248D01*
X138585Y728273D01*
X138486Y728294D01*
X138386Y728312D01*
X138286Y728325D01*
X138185Y728335D01*
X138083Y728341D01*
X137982Y728343D01*
X140254Y727045D02*
X142202Y723475D01*
X144474Y732901D02*
X147070Y736146D01*
X135386Y736146D01*
X135386Y732901D02*
X135386Y739392D01*
X160780Y772922D02*
X172464Y772922D01*
X172464Y776168D01*
X172462Y776281D01*
X172456Y776394D01*
X172446Y776507D01*
X172432Y776620D01*
X172415Y776732D01*
X172393Y776843D01*
X172368Y776953D01*
X172338Y777063D01*
X172305Y777171D01*
X172268Y777278D01*
X172228Y777384D01*
X172183Y777488D01*
X172135Y777591D01*
X172084Y777692D01*
X172029Y777791D01*
X171971Y777888D01*
X171909Y777983D01*
X171844Y778076D01*
X171776Y778166D01*
X171705Y778254D01*
X171630Y778340D01*
X171553Y778423D01*
X171473Y778503D01*
X171390Y778580D01*
X171304Y778655D01*
X171216Y778726D01*
X171126Y778794D01*
X171033Y778859D01*
X170938Y778921D01*
X170841Y778979D01*
X170742Y779034D01*
X170641Y779085D01*
X170538Y779133D01*
X170434Y779178D01*
X170328Y779218D01*
X170221Y779255D01*
X170113Y779288D01*
X170003Y779318D01*
X169893Y779343D01*
X169782Y779365D01*
X169670Y779382D01*
X169557Y779396D01*
X169444Y779406D01*
X169331Y779412D01*
X169218Y779414D01*
X169105Y779412D01*
X168992Y779406D01*
X168879Y779396D01*
X168766Y779382D01*
X168654Y779365D01*
X168543Y779343D01*
X168433Y779318D01*
X168323Y779288D01*
X168215Y779255D01*
X168108Y779218D01*
X168002Y779178D01*
X167898Y779133D01*
X167795Y779085D01*
X167694Y779034D01*
X167595Y778979D01*
X167498Y778921D01*
X167403Y778859D01*
X167310Y778794D01*
X167220Y778726D01*
X167132Y778655D01*
X167046Y778580D01*
X166963Y778503D01*
X166883Y778423D01*
X166806Y778340D01*
X166731Y778254D01*
X166660Y778166D01*
X166592Y778076D01*
X166527Y777983D01*
X166465Y777888D01*
X166407Y777791D01*
X166352Y777692D01*
X166301Y777591D01*
X166253Y777488D01*
X166208Y777384D01*
X166168Y777278D01*
X166131Y777171D01*
X166098Y777063D01*
X166068Y776953D01*
X166043Y776843D01*
X166021Y776732D01*
X166004Y776620D01*
X165990Y776507D01*
X165980Y776394D01*
X165974Y776281D01*
X165972Y776168D01*
X165973Y776168D02*
X165973Y772922D01*
X165973Y776817D02*
X160780Y779413D01*
X160780Y787792D02*
X160782Y787891D01*
X160788Y787991D01*
X160797Y788090D01*
X160810Y788188D01*
X160827Y788286D01*
X160848Y788384D01*
X160873Y788480D01*
X160901Y788575D01*
X160933Y788669D01*
X160968Y788762D01*
X161007Y788854D01*
X161050Y788944D01*
X161095Y789032D01*
X161145Y789119D01*
X161197Y789203D01*
X161253Y789286D01*
X161311Y789366D01*
X161373Y789444D01*
X161438Y789519D01*
X161506Y789592D01*
X161576Y789662D01*
X161649Y789730D01*
X161724Y789795D01*
X161802Y789857D01*
X161882Y789915D01*
X161965Y789971D01*
X162049Y790023D01*
X162136Y790073D01*
X162224Y790118D01*
X162314Y790161D01*
X162406Y790200D01*
X162499Y790235D01*
X162593Y790267D01*
X162688Y790295D01*
X162784Y790320D01*
X162882Y790341D01*
X162980Y790358D01*
X163078Y790371D01*
X163177Y790380D01*
X163277Y790386D01*
X163376Y790388D01*
X160780Y787792D02*
X160782Y787648D01*
X160788Y787503D01*
X160797Y787359D01*
X160810Y787216D01*
X160827Y787072D01*
X160848Y786929D01*
X160873Y786787D01*
X160901Y786646D01*
X160933Y786505D01*
X160969Y786365D01*
X161008Y786226D01*
X161051Y786088D01*
X161098Y785952D01*
X161148Y785816D01*
X161202Y785682D01*
X161259Y785550D01*
X161320Y785419D01*
X161384Y785290D01*
X161452Y785162D01*
X161522Y785036D01*
X161597Y784912D01*
X161674Y784791D01*
X161755Y784671D01*
X161838Y784553D01*
X161925Y784438D01*
X162015Y784325D01*
X162108Y784214D01*
X162203Y784106D01*
X162302Y784000D01*
X162403Y783897D01*
X169868Y784222D02*
X169967Y784224D01*
X170067Y784230D01*
X170166Y784239D01*
X170264Y784252D01*
X170362Y784269D01*
X170460Y784290D01*
X170556Y784315D01*
X170651Y784343D01*
X170745Y784375D01*
X170838Y784410D01*
X170930Y784449D01*
X171020Y784492D01*
X171108Y784537D01*
X171195Y784587D01*
X171279Y784639D01*
X171362Y784695D01*
X171442Y784753D01*
X171520Y784815D01*
X171595Y784880D01*
X171668Y784948D01*
X171738Y785018D01*
X171806Y785091D01*
X171871Y785166D01*
X171933Y785244D01*
X171991Y785324D01*
X172047Y785407D01*
X172099Y785491D01*
X172149Y785578D01*
X172194Y785666D01*
X172237Y785756D01*
X172276Y785848D01*
X172311Y785941D01*
X172343Y786035D01*
X172371Y786130D01*
X172396Y786227D01*
X172417Y786324D01*
X172434Y786422D01*
X172447Y786520D01*
X172456Y786619D01*
X172462Y786719D01*
X172464Y786818D01*
X172462Y786954D01*
X172456Y787090D01*
X172447Y787226D01*
X172434Y787362D01*
X172416Y787497D01*
X172396Y787631D01*
X172371Y787765D01*
X172343Y787899D01*
X172310Y788031D01*
X172275Y788162D01*
X172235Y788293D01*
X172192Y788422D01*
X172146Y788550D01*
X172095Y788676D01*
X172042Y788802D01*
X171984Y788925D01*
X171924Y789047D01*
X171860Y789167D01*
X171792Y789286D01*
X171722Y789402D01*
X171648Y789516D01*
X171571Y789629D01*
X171490Y789739D01*
X167596Y785520D02*
X167649Y785434D01*
X167706Y785350D01*
X167765Y785268D01*
X167828Y785188D01*
X167894Y785111D01*
X167962Y785036D01*
X168034Y784964D01*
X168108Y784895D01*
X168185Y784829D01*
X168264Y784766D01*
X168346Y784706D01*
X168430Y784649D01*
X168516Y784595D01*
X168604Y784545D01*
X168694Y784498D01*
X168785Y784454D01*
X168879Y784415D01*
X168973Y784378D01*
X169069Y784346D01*
X169167Y784317D01*
X169265Y784292D01*
X169364Y784271D01*
X169464Y784253D01*
X169564Y784240D01*
X169665Y784230D01*
X169767Y784224D01*
X169868Y784222D01*
X165648Y789090D02*
X165595Y789176D01*
X165538Y789260D01*
X165479Y789342D01*
X165416Y789422D01*
X165350Y789499D01*
X165282Y789574D01*
X165210Y789646D01*
X165136Y789715D01*
X165059Y789781D01*
X164980Y789844D01*
X164898Y789904D01*
X164814Y789961D01*
X164728Y790015D01*
X164640Y790065D01*
X164550Y790112D01*
X164459Y790156D01*
X164365Y790195D01*
X164271Y790232D01*
X164175Y790264D01*
X164077Y790293D01*
X163979Y790318D01*
X163880Y790339D01*
X163780Y790357D01*
X163680Y790370D01*
X163579Y790380D01*
X163477Y790386D01*
X163376Y790388D01*
X165648Y789090D02*
X167596Y785520D01*
X172464Y798516D02*
X172462Y798623D01*
X172456Y798729D01*
X172446Y798835D01*
X172433Y798941D01*
X172415Y799047D01*
X172394Y799151D01*
X172369Y799255D01*
X172340Y799358D01*
X172308Y799459D01*
X172271Y799559D01*
X172231Y799658D01*
X172188Y799756D01*
X172141Y799852D01*
X172090Y799946D01*
X172036Y800038D01*
X171979Y800128D01*
X171919Y800216D01*
X171855Y800301D01*
X171788Y800384D01*
X171718Y800465D01*
X171646Y800543D01*
X171570Y800619D01*
X171492Y800691D01*
X171411Y800761D01*
X171328Y800828D01*
X171243Y800892D01*
X171155Y800952D01*
X171065Y801009D01*
X170973Y801063D01*
X170879Y801114D01*
X170783Y801161D01*
X170685Y801204D01*
X170586Y801244D01*
X170486Y801281D01*
X170385Y801313D01*
X170282Y801342D01*
X170178Y801367D01*
X170074Y801388D01*
X169968Y801406D01*
X169862Y801419D01*
X169756Y801429D01*
X169650Y801435D01*
X169543Y801437D01*
X172464Y798516D02*
X172462Y798395D01*
X172456Y798274D01*
X172446Y798154D01*
X172433Y798033D01*
X172415Y797914D01*
X172394Y797794D01*
X172369Y797676D01*
X172340Y797559D01*
X172307Y797442D01*
X172271Y797327D01*
X172230Y797213D01*
X172187Y797100D01*
X172139Y796988D01*
X172088Y796879D01*
X172033Y796771D01*
X171975Y796664D01*
X171914Y796560D01*
X171849Y796458D01*
X171781Y796358D01*
X171710Y796260D01*
X171636Y796164D01*
X171559Y796071D01*
X171478Y795981D01*
X171395Y795893D01*
X171309Y795808D01*
X171220Y795725D01*
X171129Y795646D01*
X171035Y795569D01*
X170939Y795496D01*
X170841Y795426D01*
X170740Y795359D01*
X170637Y795295D01*
X170532Y795235D01*
X170425Y795178D01*
X170317Y795124D01*
X170207Y795074D01*
X170095Y795028D01*
X169982Y794985D01*
X169867Y794946D01*
X167271Y800464D02*
X167348Y800543D01*
X167429Y800619D01*
X167512Y800692D01*
X167597Y800762D01*
X167685Y800829D01*
X167775Y800893D01*
X167867Y800953D01*
X167962Y801010D01*
X168058Y801064D01*
X168156Y801115D01*
X168256Y801162D01*
X168358Y801206D01*
X168461Y801246D01*
X168565Y801282D01*
X168671Y801314D01*
X168777Y801343D01*
X168885Y801368D01*
X168993Y801390D01*
X169103Y801407D01*
X169212Y801421D01*
X169322Y801430D01*
X169433Y801436D01*
X169543Y801438D01*
X167271Y800464D02*
X160780Y794946D01*
X160780Y801437D01*
X812734Y644158D02*
X824418Y644158D01*
X824418Y647404D01*
X824416Y647517D01*
X824410Y647630D01*
X824400Y647743D01*
X824386Y647856D01*
X824369Y647968D01*
X824347Y648079D01*
X824322Y648189D01*
X824292Y648299D01*
X824259Y648407D01*
X824222Y648514D01*
X824182Y648620D01*
X824137Y648724D01*
X824089Y648827D01*
X824038Y648928D01*
X823983Y649027D01*
X823925Y649124D01*
X823863Y649219D01*
X823798Y649312D01*
X823730Y649402D01*
X823659Y649490D01*
X823584Y649576D01*
X823507Y649659D01*
X823427Y649739D01*
X823344Y649816D01*
X823258Y649891D01*
X823170Y649962D01*
X823080Y650030D01*
X822987Y650095D01*
X822892Y650157D01*
X822795Y650215D01*
X822696Y650270D01*
X822595Y650321D01*
X822492Y650369D01*
X822388Y650414D01*
X822282Y650454D01*
X822175Y650491D01*
X822067Y650524D01*
X821957Y650554D01*
X821847Y650579D01*
X821736Y650601D01*
X821624Y650618D01*
X821511Y650632D01*
X821398Y650642D01*
X821285Y650648D01*
X821172Y650650D01*
X821059Y650648D01*
X820946Y650642D01*
X820833Y650632D01*
X820720Y650618D01*
X820608Y650601D01*
X820497Y650579D01*
X820387Y650554D01*
X820277Y650524D01*
X820169Y650491D01*
X820062Y650454D01*
X819956Y650414D01*
X819852Y650369D01*
X819749Y650321D01*
X819648Y650270D01*
X819549Y650215D01*
X819452Y650157D01*
X819357Y650095D01*
X819264Y650030D01*
X819174Y649962D01*
X819086Y649891D01*
X819000Y649816D01*
X818917Y649739D01*
X818837Y649659D01*
X818760Y649576D01*
X818685Y649490D01*
X818614Y649402D01*
X818546Y649312D01*
X818481Y649219D01*
X818419Y649124D01*
X818361Y649027D01*
X818306Y648928D01*
X818255Y648827D01*
X818207Y648724D01*
X818162Y648620D01*
X818122Y648514D01*
X818085Y648407D01*
X818052Y648299D01*
X818022Y648189D01*
X817997Y648079D01*
X817975Y647968D01*
X817958Y647856D01*
X817944Y647743D01*
X817934Y647630D01*
X817928Y647517D01*
X817926Y647404D01*
X817927Y647404D02*
X817927Y644158D01*
X817927Y648053D02*
X812734Y650649D01*
X811436Y655020D02*
X811436Y660213D01*
X812734Y665062D02*
X824418Y665062D01*
X812734Y665062D02*
X812734Y670255D01*
X821822Y674564D02*
X824418Y677810D01*
X812734Y677810D01*
X812734Y681055D02*
X812734Y674564D01*
X812536Y694158D02*
X824220Y694158D01*
X824220Y697404D01*
X824218Y697517D01*
X824212Y697630D01*
X824202Y697743D01*
X824188Y697856D01*
X824171Y697968D01*
X824149Y698079D01*
X824124Y698189D01*
X824094Y698299D01*
X824061Y698407D01*
X824024Y698514D01*
X823984Y698620D01*
X823939Y698724D01*
X823891Y698827D01*
X823840Y698928D01*
X823785Y699027D01*
X823727Y699124D01*
X823665Y699219D01*
X823600Y699312D01*
X823532Y699402D01*
X823461Y699490D01*
X823386Y699576D01*
X823309Y699659D01*
X823229Y699739D01*
X823146Y699816D01*
X823060Y699891D01*
X822972Y699962D01*
X822882Y700030D01*
X822789Y700095D01*
X822694Y700157D01*
X822597Y700215D01*
X822498Y700270D01*
X822397Y700321D01*
X822294Y700369D01*
X822190Y700414D01*
X822084Y700454D01*
X821977Y700491D01*
X821869Y700524D01*
X821759Y700554D01*
X821649Y700579D01*
X821538Y700601D01*
X821426Y700618D01*
X821313Y700632D01*
X821200Y700642D01*
X821087Y700648D01*
X820974Y700650D01*
X820861Y700648D01*
X820748Y700642D01*
X820635Y700632D01*
X820522Y700618D01*
X820410Y700601D01*
X820299Y700579D01*
X820189Y700554D01*
X820079Y700524D01*
X819971Y700491D01*
X819864Y700454D01*
X819758Y700414D01*
X819654Y700369D01*
X819551Y700321D01*
X819450Y700270D01*
X819351Y700215D01*
X819254Y700157D01*
X819159Y700095D01*
X819066Y700030D01*
X818976Y699962D01*
X818888Y699891D01*
X818802Y699816D01*
X818719Y699739D01*
X818639Y699659D01*
X818562Y699576D01*
X818487Y699490D01*
X818416Y699402D01*
X818348Y699312D01*
X818283Y699219D01*
X818221Y699124D01*
X818163Y699027D01*
X818108Y698928D01*
X818057Y698827D01*
X818009Y698724D01*
X817964Y698620D01*
X817924Y698514D01*
X817887Y698407D01*
X817854Y698299D01*
X817824Y698189D01*
X817799Y698079D01*
X817777Y697968D01*
X817760Y697856D01*
X817746Y697743D01*
X817736Y697630D01*
X817730Y697517D01*
X817728Y697404D01*
X817729Y697404D02*
X817729Y694158D01*
X817729Y698053D02*
X812536Y700649D01*
X811238Y705020D02*
X811238Y710213D01*
X812536Y715062D02*
X824220Y715062D01*
X812536Y715062D02*
X812536Y720255D01*
X821299Y731055D02*
X821406Y731053D01*
X821512Y731047D01*
X821618Y731037D01*
X821724Y731024D01*
X821830Y731006D01*
X821934Y730985D01*
X822038Y730960D01*
X822141Y730931D01*
X822242Y730899D01*
X822342Y730862D01*
X822441Y730822D01*
X822539Y730779D01*
X822635Y730732D01*
X822729Y730681D01*
X822821Y730627D01*
X822911Y730570D01*
X822999Y730510D01*
X823084Y730446D01*
X823167Y730379D01*
X823248Y730309D01*
X823326Y730237D01*
X823402Y730161D01*
X823474Y730083D01*
X823544Y730002D01*
X823611Y729919D01*
X823675Y729834D01*
X823735Y729746D01*
X823792Y729656D01*
X823846Y729564D01*
X823897Y729470D01*
X823944Y729374D01*
X823987Y729276D01*
X824027Y729177D01*
X824064Y729077D01*
X824096Y728976D01*
X824125Y728873D01*
X824150Y728769D01*
X824171Y728665D01*
X824189Y728559D01*
X824202Y728453D01*
X824212Y728347D01*
X824218Y728241D01*
X824220Y728134D01*
X824218Y728013D01*
X824212Y727892D01*
X824202Y727772D01*
X824189Y727651D01*
X824171Y727532D01*
X824150Y727412D01*
X824125Y727294D01*
X824096Y727177D01*
X824063Y727060D01*
X824027Y726945D01*
X823986Y726831D01*
X823943Y726718D01*
X823895Y726606D01*
X823844Y726497D01*
X823789Y726389D01*
X823731Y726282D01*
X823670Y726178D01*
X823605Y726076D01*
X823537Y725976D01*
X823466Y725878D01*
X823392Y725782D01*
X823315Y725689D01*
X823234Y725599D01*
X823151Y725511D01*
X823065Y725426D01*
X822976Y725343D01*
X822885Y725264D01*
X822791Y725187D01*
X822695Y725114D01*
X822597Y725044D01*
X822496Y724977D01*
X822393Y724913D01*
X822288Y724853D01*
X822181Y724796D01*
X822073Y724742D01*
X821963Y724692D01*
X821851Y724646D01*
X821738Y724603D01*
X821623Y724564D01*
X819027Y730082D02*
X819104Y730161D01*
X819185Y730237D01*
X819268Y730310D01*
X819353Y730380D01*
X819441Y730447D01*
X819531Y730511D01*
X819623Y730571D01*
X819718Y730628D01*
X819814Y730682D01*
X819912Y730733D01*
X820012Y730780D01*
X820114Y730824D01*
X820217Y730864D01*
X820321Y730900D01*
X820427Y730932D01*
X820533Y730961D01*
X820641Y730986D01*
X820749Y731008D01*
X820859Y731025D01*
X820968Y731039D01*
X821078Y731048D01*
X821189Y731054D01*
X821299Y731056D01*
X819027Y730082D02*
X812536Y724564D01*
X812536Y731055D01*
X811910Y744158D02*
X823594Y744158D01*
X823594Y747404D01*
X823592Y747517D01*
X823586Y747630D01*
X823576Y747743D01*
X823562Y747856D01*
X823545Y747968D01*
X823523Y748079D01*
X823498Y748189D01*
X823468Y748299D01*
X823435Y748407D01*
X823398Y748514D01*
X823358Y748620D01*
X823313Y748724D01*
X823265Y748827D01*
X823214Y748928D01*
X823159Y749027D01*
X823101Y749124D01*
X823039Y749219D01*
X822974Y749312D01*
X822906Y749402D01*
X822835Y749490D01*
X822760Y749576D01*
X822683Y749659D01*
X822603Y749739D01*
X822520Y749816D01*
X822434Y749891D01*
X822346Y749962D01*
X822256Y750030D01*
X822163Y750095D01*
X822068Y750157D01*
X821971Y750215D01*
X821872Y750270D01*
X821771Y750321D01*
X821668Y750369D01*
X821564Y750414D01*
X821458Y750454D01*
X821351Y750491D01*
X821243Y750524D01*
X821133Y750554D01*
X821023Y750579D01*
X820912Y750601D01*
X820800Y750618D01*
X820687Y750632D01*
X820574Y750642D01*
X820461Y750648D01*
X820348Y750650D01*
X820235Y750648D01*
X820122Y750642D01*
X820009Y750632D01*
X819896Y750618D01*
X819784Y750601D01*
X819673Y750579D01*
X819563Y750554D01*
X819453Y750524D01*
X819345Y750491D01*
X819238Y750454D01*
X819132Y750414D01*
X819028Y750369D01*
X818925Y750321D01*
X818824Y750270D01*
X818725Y750215D01*
X818628Y750157D01*
X818533Y750095D01*
X818440Y750030D01*
X818350Y749962D01*
X818262Y749891D01*
X818176Y749816D01*
X818093Y749739D01*
X818013Y749659D01*
X817936Y749576D01*
X817861Y749490D01*
X817790Y749402D01*
X817722Y749312D01*
X817657Y749219D01*
X817595Y749124D01*
X817537Y749027D01*
X817482Y748928D01*
X817431Y748827D01*
X817383Y748724D01*
X817338Y748620D01*
X817298Y748514D01*
X817261Y748407D01*
X817228Y748299D01*
X817198Y748189D01*
X817173Y748079D01*
X817151Y747968D01*
X817134Y747856D01*
X817120Y747743D01*
X817110Y747630D01*
X817104Y747517D01*
X817102Y747404D01*
X817103Y747404D02*
X817103Y744158D01*
X817103Y748053D02*
X811910Y750649D01*
X810612Y755020D02*
X810612Y760213D01*
X811910Y765062D02*
X823594Y765062D01*
X811910Y765062D02*
X811910Y770255D01*
X811910Y774564D02*
X811910Y777810D01*
X811912Y777923D01*
X811918Y778036D01*
X811928Y778149D01*
X811942Y778262D01*
X811959Y778374D01*
X811981Y778485D01*
X812006Y778595D01*
X812036Y778705D01*
X812069Y778813D01*
X812106Y778920D01*
X812146Y779026D01*
X812191Y779130D01*
X812239Y779233D01*
X812290Y779334D01*
X812345Y779433D01*
X812403Y779530D01*
X812465Y779625D01*
X812530Y779718D01*
X812598Y779808D01*
X812669Y779896D01*
X812744Y779982D01*
X812821Y780065D01*
X812901Y780145D01*
X812984Y780222D01*
X813070Y780297D01*
X813158Y780368D01*
X813248Y780436D01*
X813341Y780501D01*
X813436Y780563D01*
X813533Y780621D01*
X813632Y780676D01*
X813733Y780727D01*
X813836Y780775D01*
X813940Y780820D01*
X814046Y780860D01*
X814153Y780897D01*
X814261Y780930D01*
X814371Y780960D01*
X814481Y780985D01*
X814592Y781007D01*
X814704Y781024D01*
X814817Y781038D01*
X814930Y781048D01*
X815043Y781054D01*
X815156Y781056D01*
X815269Y781054D01*
X815382Y781048D01*
X815495Y781038D01*
X815608Y781024D01*
X815720Y781007D01*
X815831Y780985D01*
X815941Y780960D01*
X816051Y780930D01*
X816159Y780897D01*
X816266Y780860D01*
X816372Y780820D01*
X816476Y780775D01*
X816579Y780727D01*
X816680Y780676D01*
X816779Y780621D01*
X816876Y780563D01*
X816971Y780501D01*
X817064Y780436D01*
X817154Y780368D01*
X817242Y780297D01*
X817328Y780222D01*
X817411Y780145D01*
X817491Y780065D01*
X817568Y779982D01*
X817643Y779896D01*
X817714Y779808D01*
X817782Y779718D01*
X817847Y779625D01*
X817909Y779530D01*
X817967Y779433D01*
X818022Y779334D01*
X818073Y779233D01*
X818121Y779130D01*
X818166Y779026D01*
X818206Y778920D01*
X818243Y778813D01*
X818276Y778705D01*
X818306Y778595D01*
X818331Y778485D01*
X818353Y778374D01*
X818370Y778262D01*
X818384Y778149D01*
X818394Y778036D01*
X818400Y777923D01*
X818402Y777810D01*
X823594Y778459D02*
X823594Y774564D01*
X823594Y778459D02*
X823592Y778560D01*
X823586Y778660D01*
X823576Y778760D01*
X823563Y778860D01*
X823545Y778959D01*
X823524Y779058D01*
X823499Y779155D01*
X823470Y779252D01*
X823437Y779347D01*
X823401Y779441D01*
X823361Y779533D01*
X823318Y779624D01*
X823271Y779713D01*
X823221Y779800D01*
X823167Y779886D01*
X823110Y779969D01*
X823050Y780049D01*
X822987Y780128D01*
X822920Y780204D01*
X822851Y780277D01*
X822779Y780347D01*
X822705Y780415D01*
X822628Y780480D01*
X822548Y780541D01*
X822466Y780600D01*
X822382Y780655D01*
X822296Y780707D01*
X822208Y780756D01*
X822118Y780801D01*
X822026Y780843D01*
X821933Y780881D01*
X821838Y780915D01*
X821743Y780946D01*
X821646Y780973D01*
X821548Y780996D01*
X821449Y781016D01*
X821349Y781031D01*
X821249Y781043D01*
X821149Y781051D01*
X821048Y781055D01*
X820948Y781055D01*
X820847Y781051D01*
X820747Y781043D01*
X820647Y781031D01*
X820547Y781016D01*
X820448Y780996D01*
X820350Y780973D01*
X820253Y780946D01*
X820158Y780915D01*
X820063Y780881D01*
X819970Y780843D01*
X819878Y780801D01*
X819788Y780756D01*
X819700Y780707D01*
X819614Y780655D01*
X819530Y780600D01*
X819448Y780541D01*
X819368Y780480D01*
X819291Y780415D01*
X819217Y780347D01*
X819145Y780277D01*
X819076Y780204D01*
X819009Y780128D01*
X818946Y780049D01*
X818886Y779969D01*
X818829Y779886D01*
X818775Y779800D01*
X818725Y779713D01*
X818678Y779624D01*
X818635Y779533D01*
X818595Y779441D01*
X818559Y779347D01*
X818526Y779252D01*
X818497Y779155D01*
X818472Y779058D01*
X818451Y778959D01*
X818433Y778860D01*
X818420Y778760D01*
X818410Y778660D01*
X818404Y778560D01*
X818402Y778459D01*
X818401Y778459D02*
X818401Y775863D01*
X823396Y794158D02*
X811712Y794158D01*
X823396Y794158D02*
X823396Y797404D01*
X823394Y797517D01*
X823388Y797630D01*
X823378Y797743D01*
X823364Y797856D01*
X823347Y797968D01*
X823325Y798079D01*
X823300Y798189D01*
X823270Y798299D01*
X823237Y798407D01*
X823200Y798514D01*
X823160Y798620D01*
X823115Y798724D01*
X823067Y798827D01*
X823016Y798928D01*
X822961Y799027D01*
X822903Y799124D01*
X822841Y799219D01*
X822776Y799312D01*
X822708Y799402D01*
X822637Y799490D01*
X822562Y799576D01*
X822485Y799659D01*
X822405Y799739D01*
X822322Y799816D01*
X822236Y799891D01*
X822148Y799962D01*
X822058Y800030D01*
X821965Y800095D01*
X821870Y800157D01*
X821773Y800215D01*
X821674Y800270D01*
X821573Y800321D01*
X821470Y800369D01*
X821366Y800414D01*
X821260Y800454D01*
X821153Y800491D01*
X821045Y800524D01*
X820935Y800554D01*
X820825Y800579D01*
X820714Y800601D01*
X820602Y800618D01*
X820489Y800632D01*
X820376Y800642D01*
X820263Y800648D01*
X820150Y800650D01*
X820037Y800648D01*
X819924Y800642D01*
X819811Y800632D01*
X819698Y800618D01*
X819586Y800601D01*
X819475Y800579D01*
X819365Y800554D01*
X819255Y800524D01*
X819147Y800491D01*
X819040Y800454D01*
X818934Y800414D01*
X818830Y800369D01*
X818727Y800321D01*
X818626Y800270D01*
X818527Y800215D01*
X818430Y800157D01*
X818335Y800095D01*
X818242Y800030D01*
X818152Y799962D01*
X818064Y799891D01*
X817978Y799816D01*
X817895Y799739D01*
X817815Y799659D01*
X817738Y799576D01*
X817663Y799490D01*
X817592Y799402D01*
X817524Y799312D01*
X817459Y799219D01*
X817397Y799124D01*
X817339Y799027D01*
X817284Y798928D01*
X817233Y798827D01*
X817185Y798724D01*
X817140Y798620D01*
X817100Y798514D01*
X817063Y798407D01*
X817030Y798299D01*
X817000Y798189D01*
X816975Y798079D01*
X816953Y797968D01*
X816936Y797856D01*
X816922Y797743D01*
X816912Y797630D01*
X816906Y797517D01*
X816904Y797404D01*
X816905Y797404D02*
X816905Y794158D01*
X816905Y798053D02*
X811712Y800649D01*
X810414Y805020D02*
X810414Y810213D01*
X811712Y815062D02*
X823396Y815062D01*
X811712Y815062D02*
X811712Y820255D01*
X814308Y824564D02*
X823396Y827161D01*
X814308Y824564D02*
X814308Y831055D01*
X816905Y829108D02*
X811712Y829108D01*
X348121Y410972D02*
X348121Y399288D01*
X348121Y410972D02*
X344876Y410972D01*
X344763Y410970D01*
X344650Y410964D01*
X344537Y410954D01*
X344424Y410940D01*
X344312Y410923D01*
X344201Y410901D01*
X344091Y410876D01*
X343981Y410846D01*
X343873Y410813D01*
X343766Y410776D01*
X343660Y410736D01*
X343556Y410691D01*
X343453Y410643D01*
X343352Y410592D01*
X343253Y410537D01*
X343156Y410479D01*
X343061Y410417D01*
X342968Y410352D01*
X342878Y410284D01*
X342790Y410213D01*
X342704Y410138D01*
X342621Y410061D01*
X342541Y409981D01*
X342464Y409898D01*
X342389Y409812D01*
X342318Y409724D01*
X342250Y409634D01*
X342185Y409541D01*
X342123Y409446D01*
X342065Y409349D01*
X342010Y409250D01*
X341959Y409149D01*
X341911Y409046D01*
X341866Y408942D01*
X341826Y408836D01*
X341789Y408729D01*
X341756Y408621D01*
X341726Y408511D01*
X341701Y408401D01*
X341679Y408290D01*
X341662Y408178D01*
X341648Y408065D01*
X341638Y407952D01*
X341632Y407839D01*
X341630Y407726D01*
X341632Y407613D01*
X341638Y407500D01*
X341648Y407387D01*
X341662Y407274D01*
X341679Y407162D01*
X341701Y407051D01*
X341726Y406941D01*
X341756Y406831D01*
X341789Y406723D01*
X341826Y406616D01*
X341866Y406510D01*
X341911Y406406D01*
X341959Y406303D01*
X342010Y406202D01*
X342065Y406103D01*
X342123Y406006D01*
X342185Y405911D01*
X342250Y405818D01*
X342318Y405728D01*
X342389Y405640D01*
X342464Y405554D01*
X342541Y405471D01*
X342621Y405391D01*
X342704Y405314D01*
X342790Y405239D01*
X342878Y405168D01*
X342968Y405100D01*
X343061Y405035D01*
X343156Y404973D01*
X343253Y404915D01*
X343352Y404860D01*
X343453Y404809D01*
X343556Y404761D01*
X343660Y404716D01*
X343766Y404676D01*
X343873Y404639D01*
X343981Y404606D01*
X344091Y404576D01*
X344201Y404551D01*
X344312Y404529D01*
X344424Y404512D01*
X344537Y404498D01*
X344650Y404488D01*
X344763Y404482D01*
X344876Y404480D01*
X344876Y404481D02*
X348121Y404481D01*
X344226Y404481D02*
X341630Y399288D01*
X337259Y397990D02*
X332066Y397990D01*
X327127Y399288D02*
X327127Y410972D01*
X323232Y404481D01*
X319338Y410972D01*
X319338Y399288D01*
X311341Y399288D02*
X308745Y399288D01*
X311341Y399288D02*
X311440Y399290D01*
X311540Y399296D01*
X311639Y399305D01*
X311737Y399318D01*
X311835Y399335D01*
X311933Y399356D01*
X312029Y399381D01*
X312124Y399409D01*
X312218Y399441D01*
X312311Y399476D01*
X312403Y399515D01*
X312493Y399558D01*
X312581Y399603D01*
X312668Y399653D01*
X312752Y399705D01*
X312835Y399761D01*
X312915Y399819D01*
X312993Y399881D01*
X313068Y399946D01*
X313141Y400014D01*
X313211Y400084D01*
X313279Y400157D01*
X313344Y400232D01*
X313406Y400310D01*
X313464Y400390D01*
X313520Y400473D01*
X313572Y400557D01*
X313622Y400644D01*
X313667Y400732D01*
X313710Y400822D01*
X313749Y400914D01*
X313784Y401007D01*
X313816Y401101D01*
X313844Y401196D01*
X313869Y401292D01*
X313890Y401390D01*
X313907Y401488D01*
X313920Y401586D01*
X313929Y401685D01*
X313935Y401785D01*
X313937Y401884D01*
X313938Y401884D02*
X313938Y408376D01*
X313937Y408376D02*
X313935Y408475D01*
X313929Y408575D01*
X313920Y408674D01*
X313907Y408772D01*
X313890Y408870D01*
X313869Y408968D01*
X313844Y409064D01*
X313816Y409159D01*
X313784Y409253D01*
X313749Y409346D01*
X313710Y409438D01*
X313667Y409528D01*
X313622Y409616D01*
X313572Y409703D01*
X313520Y409787D01*
X313464Y409870D01*
X313406Y409950D01*
X313344Y410028D01*
X313279Y410103D01*
X313211Y410176D01*
X313141Y410246D01*
X313068Y410314D01*
X312993Y410379D01*
X312915Y410441D01*
X312835Y410499D01*
X312752Y410555D01*
X312668Y410607D01*
X312581Y410657D01*
X312493Y410702D01*
X312403Y410745D01*
X312311Y410784D01*
X312218Y410819D01*
X312124Y410851D01*
X312029Y410879D01*
X311933Y410904D01*
X311835Y410925D01*
X311737Y410942D01*
X311639Y410955D01*
X311540Y410964D01*
X311440Y410970D01*
X311341Y410972D01*
X308745Y410972D01*
X303976Y410972D02*
X303976Y399288D01*
X298783Y399288D01*
X294019Y399288D02*
X294019Y410972D01*
X290774Y410972D01*
X290661Y410970D01*
X290548Y410964D01*
X290435Y410954D01*
X290322Y410940D01*
X290210Y410923D01*
X290099Y410901D01*
X289989Y410876D01*
X289879Y410846D01*
X289771Y410813D01*
X289664Y410776D01*
X289558Y410736D01*
X289454Y410691D01*
X289351Y410643D01*
X289250Y410592D01*
X289151Y410537D01*
X289054Y410479D01*
X288959Y410417D01*
X288866Y410352D01*
X288776Y410284D01*
X288688Y410213D01*
X288602Y410138D01*
X288519Y410061D01*
X288439Y409981D01*
X288362Y409898D01*
X288287Y409812D01*
X288216Y409724D01*
X288148Y409634D01*
X288083Y409541D01*
X288021Y409446D01*
X287963Y409349D01*
X287908Y409250D01*
X287857Y409149D01*
X287809Y409046D01*
X287764Y408942D01*
X287724Y408836D01*
X287687Y408729D01*
X287654Y408621D01*
X287624Y408511D01*
X287599Y408401D01*
X287577Y408290D01*
X287560Y408178D01*
X287546Y408065D01*
X287536Y407952D01*
X287530Y407839D01*
X287528Y407726D01*
X287530Y407613D01*
X287536Y407500D01*
X287546Y407387D01*
X287560Y407274D01*
X287577Y407162D01*
X287599Y407051D01*
X287624Y406941D01*
X287654Y406831D01*
X287687Y406723D01*
X287724Y406616D01*
X287764Y406510D01*
X287809Y406406D01*
X287857Y406303D01*
X287908Y406202D01*
X287963Y406103D01*
X288021Y406006D01*
X288083Y405911D01*
X288148Y405818D01*
X288216Y405728D01*
X288287Y405640D01*
X288362Y405554D01*
X288439Y405471D01*
X288519Y405391D01*
X288602Y405314D01*
X288688Y405239D01*
X288776Y405168D01*
X288866Y405100D01*
X288959Y405035D01*
X289054Y404973D01*
X289151Y404915D01*
X289250Y404860D01*
X289351Y404809D01*
X289454Y404761D01*
X289558Y404716D01*
X289664Y404676D01*
X289771Y404639D01*
X289879Y404606D01*
X289989Y404576D01*
X290099Y404551D01*
X290210Y404529D01*
X290322Y404512D01*
X290435Y404498D01*
X290548Y404488D01*
X290661Y404482D01*
X290774Y404480D01*
X290774Y404481D02*
X294019Y404481D01*
X290124Y404481D02*
X287528Y399288D01*
X96776Y799842D02*
X96776Y811526D01*
X93530Y811526D01*
X93417Y811524D01*
X93304Y811518D01*
X93191Y811508D01*
X93078Y811494D01*
X92966Y811477D01*
X92855Y811455D01*
X92745Y811430D01*
X92635Y811400D01*
X92527Y811367D01*
X92420Y811330D01*
X92314Y811290D01*
X92210Y811245D01*
X92107Y811197D01*
X92006Y811146D01*
X91907Y811091D01*
X91810Y811033D01*
X91715Y810971D01*
X91622Y810906D01*
X91532Y810838D01*
X91444Y810767D01*
X91358Y810692D01*
X91275Y810615D01*
X91195Y810535D01*
X91118Y810452D01*
X91043Y810366D01*
X90972Y810278D01*
X90904Y810188D01*
X90839Y810095D01*
X90777Y810000D01*
X90719Y809903D01*
X90664Y809804D01*
X90613Y809703D01*
X90565Y809600D01*
X90520Y809496D01*
X90480Y809390D01*
X90443Y809283D01*
X90410Y809175D01*
X90380Y809065D01*
X90355Y808955D01*
X90333Y808844D01*
X90316Y808732D01*
X90302Y808619D01*
X90292Y808506D01*
X90286Y808393D01*
X90284Y808280D01*
X90286Y808167D01*
X90292Y808054D01*
X90302Y807941D01*
X90316Y807828D01*
X90333Y807716D01*
X90355Y807605D01*
X90380Y807495D01*
X90410Y807385D01*
X90443Y807277D01*
X90480Y807170D01*
X90520Y807064D01*
X90565Y806960D01*
X90613Y806857D01*
X90664Y806756D01*
X90719Y806657D01*
X90777Y806560D01*
X90839Y806465D01*
X90904Y806372D01*
X90972Y806282D01*
X91043Y806194D01*
X91118Y806108D01*
X91195Y806025D01*
X91275Y805945D01*
X91358Y805868D01*
X91444Y805793D01*
X91532Y805722D01*
X91622Y805654D01*
X91715Y805589D01*
X91810Y805527D01*
X91907Y805469D01*
X92006Y805414D01*
X92107Y805363D01*
X92210Y805315D01*
X92314Y805270D01*
X92420Y805230D01*
X92527Y805193D01*
X92635Y805160D01*
X92745Y805130D01*
X92855Y805105D01*
X92966Y805083D01*
X93078Y805066D01*
X93191Y805052D01*
X93304Y805042D01*
X93417Y805036D01*
X93530Y805034D01*
X93530Y805035D02*
X96776Y805035D01*
X92881Y805035D02*
X90285Y799842D01*
X81906Y799842D02*
X81807Y799844D01*
X81707Y799850D01*
X81608Y799859D01*
X81510Y799872D01*
X81412Y799889D01*
X81314Y799910D01*
X81218Y799935D01*
X81123Y799963D01*
X81029Y799995D01*
X80936Y800030D01*
X80844Y800069D01*
X80754Y800112D01*
X80666Y800157D01*
X80579Y800207D01*
X80495Y800259D01*
X80412Y800315D01*
X80332Y800373D01*
X80254Y800435D01*
X80179Y800500D01*
X80106Y800568D01*
X80036Y800638D01*
X79968Y800711D01*
X79903Y800786D01*
X79841Y800864D01*
X79783Y800944D01*
X79727Y801027D01*
X79675Y801111D01*
X79625Y801198D01*
X79580Y801286D01*
X79537Y801376D01*
X79498Y801468D01*
X79463Y801561D01*
X79431Y801655D01*
X79403Y801750D01*
X79378Y801846D01*
X79357Y801944D01*
X79340Y802042D01*
X79327Y802140D01*
X79318Y802239D01*
X79312Y802339D01*
X79310Y802438D01*
X81906Y799842D02*
X82050Y799844D01*
X82195Y799850D01*
X82339Y799859D01*
X82482Y799872D01*
X82626Y799889D01*
X82769Y799910D01*
X82911Y799935D01*
X83052Y799963D01*
X83193Y799995D01*
X83333Y800031D01*
X83472Y800070D01*
X83610Y800113D01*
X83746Y800160D01*
X83882Y800210D01*
X84016Y800264D01*
X84148Y800321D01*
X84279Y800382D01*
X84408Y800446D01*
X84536Y800514D01*
X84662Y800585D01*
X84786Y800659D01*
X84907Y800736D01*
X85027Y800817D01*
X85145Y800900D01*
X85260Y800987D01*
X85373Y801077D01*
X85484Y801170D01*
X85592Y801265D01*
X85698Y801364D01*
X85801Y801465D01*
X85476Y808930D02*
X85474Y809029D01*
X85468Y809129D01*
X85459Y809228D01*
X85446Y809326D01*
X85429Y809424D01*
X85408Y809522D01*
X85383Y809618D01*
X85355Y809713D01*
X85323Y809807D01*
X85288Y809900D01*
X85249Y809992D01*
X85206Y810082D01*
X85161Y810170D01*
X85111Y810257D01*
X85059Y810341D01*
X85003Y810424D01*
X84945Y810504D01*
X84883Y810582D01*
X84818Y810657D01*
X84750Y810730D01*
X84680Y810800D01*
X84607Y810868D01*
X84532Y810933D01*
X84454Y810995D01*
X84374Y811053D01*
X84291Y811109D01*
X84207Y811161D01*
X84120Y811211D01*
X84032Y811256D01*
X83942Y811299D01*
X83850Y811338D01*
X83757Y811373D01*
X83663Y811405D01*
X83568Y811433D01*
X83472Y811458D01*
X83374Y811479D01*
X83276Y811496D01*
X83178Y811509D01*
X83079Y811518D01*
X82979Y811524D01*
X82880Y811526D01*
X82744Y811524D01*
X82608Y811518D01*
X82472Y811509D01*
X82336Y811496D01*
X82201Y811478D01*
X82067Y811458D01*
X81933Y811433D01*
X81799Y811405D01*
X81667Y811372D01*
X81536Y811337D01*
X81405Y811297D01*
X81276Y811254D01*
X81148Y811208D01*
X81022Y811157D01*
X80896Y811104D01*
X80773Y811046D01*
X80651Y810986D01*
X80531Y810922D01*
X80412Y810854D01*
X80296Y810784D01*
X80182Y810710D01*
X80069Y810633D01*
X79959Y810552D01*
X84178Y806658D02*
X84264Y806711D01*
X84348Y806768D01*
X84430Y806827D01*
X84510Y806890D01*
X84587Y806956D01*
X84662Y807024D01*
X84734Y807096D01*
X84803Y807170D01*
X84869Y807247D01*
X84932Y807326D01*
X84992Y807408D01*
X85049Y807492D01*
X85103Y807578D01*
X85153Y807666D01*
X85200Y807756D01*
X85244Y807847D01*
X85283Y807941D01*
X85320Y808035D01*
X85352Y808131D01*
X85381Y808229D01*
X85406Y808327D01*
X85427Y808426D01*
X85445Y808526D01*
X85458Y808626D01*
X85468Y808727D01*
X85474Y808829D01*
X85476Y808930D01*
X80608Y804710D02*
X80522Y804657D01*
X80438Y804600D01*
X80356Y804541D01*
X80276Y804478D01*
X80199Y804412D01*
X80124Y804344D01*
X80052Y804272D01*
X79983Y804198D01*
X79917Y804121D01*
X79854Y804042D01*
X79794Y803960D01*
X79737Y803876D01*
X79683Y803790D01*
X79633Y803702D01*
X79586Y803612D01*
X79542Y803521D01*
X79503Y803427D01*
X79466Y803333D01*
X79434Y803237D01*
X79405Y803139D01*
X79380Y803041D01*
X79359Y802942D01*
X79341Y802842D01*
X79328Y802742D01*
X79318Y802641D01*
X79312Y802539D01*
X79310Y802438D01*
X80608Y804710D02*
X84178Y806658D01*
X74752Y799842D02*
X71506Y799842D01*
X71393Y799844D01*
X71280Y799850D01*
X71167Y799860D01*
X71054Y799874D01*
X70942Y799891D01*
X70831Y799913D01*
X70721Y799938D01*
X70611Y799968D01*
X70503Y800001D01*
X70396Y800038D01*
X70290Y800078D01*
X70186Y800123D01*
X70083Y800171D01*
X69982Y800222D01*
X69883Y800277D01*
X69786Y800335D01*
X69691Y800397D01*
X69598Y800462D01*
X69508Y800530D01*
X69420Y800601D01*
X69334Y800676D01*
X69251Y800753D01*
X69171Y800833D01*
X69094Y800916D01*
X69019Y801002D01*
X68948Y801090D01*
X68880Y801180D01*
X68815Y801273D01*
X68753Y801368D01*
X68695Y801465D01*
X68640Y801564D01*
X68589Y801665D01*
X68541Y801768D01*
X68496Y801872D01*
X68456Y801978D01*
X68419Y802085D01*
X68386Y802193D01*
X68356Y802303D01*
X68331Y802413D01*
X68309Y802524D01*
X68292Y802636D01*
X68278Y802749D01*
X68268Y802862D01*
X68262Y802975D01*
X68260Y803088D01*
X68262Y803201D01*
X68268Y803314D01*
X68278Y803427D01*
X68292Y803540D01*
X68309Y803652D01*
X68331Y803763D01*
X68356Y803873D01*
X68386Y803983D01*
X68419Y804091D01*
X68456Y804198D01*
X68496Y804304D01*
X68541Y804408D01*
X68589Y804511D01*
X68640Y804612D01*
X68695Y804711D01*
X68753Y804808D01*
X68815Y804903D01*
X68880Y804996D01*
X68948Y805086D01*
X69019Y805174D01*
X69094Y805260D01*
X69171Y805343D01*
X69251Y805423D01*
X69334Y805500D01*
X69420Y805575D01*
X69508Y805646D01*
X69598Y805714D01*
X69691Y805779D01*
X69786Y805841D01*
X69883Y805899D01*
X69982Y805954D01*
X70083Y806005D01*
X70186Y806053D01*
X70290Y806098D01*
X70396Y806138D01*
X70503Y806175D01*
X70611Y806208D01*
X70721Y806238D01*
X70831Y806263D01*
X70942Y806285D01*
X71054Y806302D01*
X71167Y806316D01*
X71280Y806326D01*
X71393Y806332D01*
X71506Y806334D01*
X70857Y811526D02*
X74752Y811526D01*
X70857Y811526D02*
X70756Y811524D01*
X70656Y811518D01*
X70556Y811508D01*
X70456Y811495D01*
X70357Y811477D01*
X70258Y811456D01*
X70161Y811431D01*
X70064Y811402D01*
X69969Y811369D01*
X69875Y811333D01*
X69783Y811293D01*
X69692Y811250D01*
X69603Y811203D01*
X69516Y811153D01*
X69430Y811099D01*
X69347Y811042D01*
X69267Y810982D01*
X69188Y810919D01*
X69112Y810852D01*
X69039Y810783D01*
X68969Y810711D01*
X68901Y810637D01*
X68836Y810560D01*
X68775Y810480D01*
X68716Y810398D01*
X68661Y810314D01*
X68609Y810228D01*
X68560Y810140D01*
X68515Y810050D01*
X68473Y809958D01*
X68435Y809865D01*
X68401Y809770D01*
X68370Y809675D01*
X68343Y809578D01*
X68320Y809480D01*
X68300Y809381D01*
X68285Y809281D01*
X68273Y809181D01*
X68265Y809081D01*
X68261Y808980D01*
X68261Y808880D01*
X68265Y808779D01*
X68273Y808679D01*
X68285Y808579D01*
X68300Y808479D01*
X68320Y808380D01*
X68343Y808282D01*
X68370Y808185D01*
X68401Y808090D01*
X68435Y807995D01*
X68473Y807902D01*
X68515Y807810D01*
X68560Y807720D01*
X68609Y807632D01*
X68661Y807546D01*
X68716Y807462D01*
X68775Y807380D01*
X68836Y807300D01*
X68901Y807223D01*
X68969Y807149D01*
X69039Y807077D01*
X69112Y807008D01*
X69188Y806941D01*
X69267Y806878D01*
X69347Y806818D01*
X69430Y806761D01*
X69516Y806707D01*
X69603Y806657D01*
X69692Y806610D01*
X69783Y806567D01*
X69875Y806527D01*
X69969Y806491D01*
X70064Y806458D01*
X70161Y806429D01*
X70258Y806404D01*
X70357Y806383D01*
X70456Y806365D01*
X70556Y806352D01*
X70656Y806342D01*
X70756Y806336D01*
X70857Y806334D01*
X70857Y806333D02*
X73453Y806333D01*
M02*
