M48
;GenerationSoftware,Autodesk,EAGLE,9.2.0*%
;CreationDate,2019-04-29T14:41:55Z*%
FMAT,2
ICI,OFF
METRIC,TZ,000.000
T6C0.600
T5C0.813
T4C1.016
T3C2.000
T2C2.184
T1C2.286
%
G90
M71
T1
X52731Y89000
X39269Y89000
T2
X11250Y55000
X11250Y37000
X80750Y55000
X80750Y37000
T3
X6000Y86000
X86000Y6000
X86000Y86000
X6000Y6000
T4
X57810Y34087
X55270Y36627
X55270Y34087
X69291Y8077
X5537Y80874
X28460Y75000
X5537Y78334
X62230Y7950
X64770Y7950
X33540Y70500
X28460Y70500
X33540Y75000
X31000Y75000
X33540Y79500
X31000Y79500
X31000Y70500
X33540Y84000
X31000Y84000
X28460Y84000
X71831Y8077
X37592Y33731
X28460Y79500
X37592Y31191
X35052Y33731
X35052Y31191
X32512Y33731
X32512Y31191
X57810Y36627
X25848Y34683
X25848Y32143
X25848Y29603
X25848Y27063
X25848Y24523
X25848Y21983
X64000Y36436
X64000Y33896
X64000Y31356
X64000Y28816
X64000Y26276
X64000Y23736
T5
X86730Y67500
X89270Y67500
X86730Y72000
X89270Y72000
X86730Y76500
X89270Y76500
X54687Y16679
X89270Y81000
X38354Y66015
X38354Y61189
X6756Y74955
X4216Y74955
X4216Y67335
X6756Y67335
X86730Y81000
X36907Y16679
X39447Y16679
X52147Y16679
X41987Y16679
X44527Y16679
X49607Y16679
X47067Y16679
X54687Y24299
X52147Y24299
X49607Y24299
X47067Y24299
X44527Y24299
X41987Y24299
X39447Y24299
X36907Y24299
X80594Y22631
X75997Y27915
X78029Y27915
X82626Y22631
T6
X30709Y63017
X56236Y62636
X48768Y32080
X56236Y56921
X58826Y62636
X58826Y56921
X61570Y62636
X61570Y56998
X64084Y62636
X64084Y56921
X44272Y36728
X42672Y35204
X17526Y68351
X32233Y67208
X32233Y65075
X17221Y65456
X17221Y62713
X29185Y60960
X19812Y60274
X28804Y54644
X28346Y18517
X24460Y14326
X60198Y17450
X60198Y25375
X17297Y81610
X11659Y81610
X36424Y69647
X44958Y30861
M30